<?xml version="1.0" encoding="UTF-8" standalone="no"?>
<!-- Generator: Adobe Illustrator 26.5.0, SVG Export Plug-In . SVG Version: 6.00 Build 0)  -->

<svg
   version="1.1"
   id="Ebene_1"
   x="0px"
   y="0px"
   viewBox="0 0 262.6153 400.99999"
   xml:space="preserve"
   width="262.6153"
   height="401"
   xmlns="http://www.w3.org/2000/svg"
   xmlns:svg="http://www.w3.org/2000/svg"><defs
   id="defs138" />
<style
   type="text/css"
   id="style1">
	.st0{fill:#E0FF00;}
</style>

<g
   id="g139"
   transform="translate(-166.5,-220)"><g
     id="g69">
	<path
   class="st0"
   d="m 429,222.2 c 0.7,-0.6 -2,-1.8 -2.4,-2.2 -0.2,1.6 3.1,2.6 2.4,2.2 z"
   id="path1" />
	<polygon
   class="st0"
   points="426.6,237.2 428,240.5 427.5,238 "
   id="polygon1" />
	<path
   class="st0"
   d="m 420.6,249.6 c 5,1.4 1.8,-4.6 4.5,-5.8 l 1.2,0.2 -2.9,-3 c -0.9,2.9 -0.5,7.5 -2.8,8.6 z"
   id="path2" />
	<path
   class="st0"
   d="m 407.7,250.3 c 1.9,0.6 0.7,2.2 1.4,-1.1 -0.3,0 -0.4,0 -0.6,0 -0.2,0.2 -0.4,0.6 -0.8,1.1 z"
   id="path3" />
	<path
   class="st0"
   d="m 408.5,249.2 c 0.6,-1.3 -1.9,-0.1 0,0 z"
   id="path4" />
	<path
   class="st0"
   d="m 406.1,255.4 -0.6,-2.5 c -1.2,-0.2 -2.3,1.1 -2.7,0.1 -0.1,2.1 1.1,2.3 3.3,2.4 z"
   id="path5" />
	<path
   class="st0"
   d="m 408.4,258.7 -0.1,-1.2 c -0.6,-0.1 -0.9,0.1 0.1,1.2 z"
   id="path6" />
	<path
   class="st0"
   d="m 407.9,255 0.3,2.6 c 0.8,0.2 2.2,1 0,-1.1 1.2,0.8 0.2,-0.2 -0.3,-1.5 z"
   id="path7" />
	<path
   class="st0"
   d="m 409.2,254.4 c 1.5,-0.4 2.7,-1.2 3.3,1.3 1.2,-3.4 -2.1,-4.8 -3.3,-1.3 z"
   id="path8" />
	<path
   class="st0"
   d="m 424.7,252.8 2,-0.5 -0.8,-1.9 c 0.4,1 -2.5,1.7 -1.2,2.4 z"
   id="path9" />
	<path
   class="st0"
   d="m 398,264.1 c 0.9,0.6 2.8,0.9 4,1.5 l -0.4,-1.8 c -1,0.2 -2.2,1 -3.6,0.3 z"
   id="path10" />
	<path
   class="st0"
   d="m 402,265.5 0.5,2.7 c 1.1,-1.4 0.6,-2.2 -0.5,-2.7 z"
   id="path11" />
	<polygon
   class="st0"
   points="411.4,257 412.7,262.4 413,261.8 "
   id="polygon11" />
	<polygon
   class="st0"
   points="392.3,268.5 394.5,272.2 393.9,270.8 "
   id="polygon12" />
	<path
   class="st0"
   d="m 391.6,275.5 c -1.3,-1.8 -3.6,-0.7 -4.2,-2.2 -0.4,1.4 0.5,3.3 1.3,5.1 -0.2,-1.5 0.6,-2.4 2.9,-2.9 z"
   id="path12" />
	<path
   class="st0"
   d="m 389.7,281.1 c -0.1,-0.7 -0.6,-1.7 -1,-2.7 0.1,0.8 0.3,1.6 1,2.7 z"
   id="path13" />
	<path
   class="st0"
   d="m 400.3,271 c -0.6,-0.2 -2.2,-0.8 -3.4,-0.1 l 3,0.8 c 0.1,-0.2 0.2,-0.5 0.4,-0.7 z"
   id="path14" />
	<path
   class="st0"
   d="m 399.9,271.7 v 0 c -0.6,0.7 -1,1.2 -1.1,1.4 0.1,-0.2 0.5,-0.6 1.1,-1.4 z"
   id="path15" />
	<path
   class="st0"
   d="m 400.4,270.8 -0.1,0.2 c 0.3,0.1 0.4,0.1 0.1,-0.2 z"
   id="path16" />
	<path
   class="st0"
   d="m 407.9,265.1 c 0.8,1.9 1.1,5 4.5,4.2 -1.3,-1.8 -3.3,-1.3 -4.5,-4.2 z"
   id="path17" />
	<path
   class="st0"
   d="m 404.1,271.9 1.7,-1.5 c -0.7,-0.4 -1.9,-0.6 -2.3,-1.6 z"
   id="path18" />
	<polygon
   class="st0"
   points="404.1,271.9 403.5,272.4 404.4,273.3 "
   id="polygon18" />
	<path
   class="st0"
   d="m 394,279.3 c 0.6,1.5 0.2,2.4 -0.2,3.5 1.1,-0.8 2.1,-1.7 2.7,-2.8 -0.7,-0.5 -1.9,-1.9 -2.5,-0.7 z"
   id="path19" />
	<path
   class="st0"
   d="m 397.1,275.8 v 0.3 c 0.3,-0.1 0.5,-0.1 0,-0.3 z"
   id="path20" />
	<path
   class="st0"
   d="m 387.9,292.8 c 0.2,0 0.4,0.1 0.6,0.1 l -0.4,-0.3 z"
   id="path21" />
	<path
   class="st0"
   d="m 397.1,280.2 c 1,-0.5 0.6,-1.4 0.1,-2.3 -0.1,0.8 -0.3,1.5 -0.7,2.2 0.3,0.3 0.6,0.4 0.6,0.1 z"
   id="path22" />
	<path
   class="st0"
   d="m 389.3,284.6 c 0.8,-0.1 1.5,-0.3 2.2,-0.6 -1,0 -2.8,0.1 -2.2,0.6 z"
   id="path23" />
	<path
   class="st0"
   d="m 396.3,275.9 c 0,-0.1 0,-0.1 0,-0.2 -0.8,-0.1 -0.5,0 0,0.2 z"
   id="path24" />
	<path
   class="st0"
   d="m 396.3,275.9 c 0.1,0.6 0.6,1.3 0.9,2 0.1,-0.6 0.1,-1.2 -0.1,-1.9 -0.2,0 -0.5,-0.1 -0.8,-0.1 z"
   id="path25" />
	<path
   class="st0"
   d="m 402.7,305.6 c -2.3,-1.6 -3.2,-5 0.4,-5.3 -0.7,-2.9 -9.3,-6.4 -14.6,-7.4 1,0.7 2,1.2 2.3,3.9 1.7,0.1 5.5,-2.3 6.7,0.5 -0.2,3.2 -2,1.5 -4,2 3.6,0.7 2.5,5.7 7.2,7.8 l -0.3,-3.1 c 0.7,0.4 1.3,1.8 2.3,1.6 z"
   id="path26" />
	<path
   class="st0"
   d="m 390.8,289.5 0.2,-0.9 c -0.9,0.6 -2.3,0.7 -4.8,0.7 0.4,2 1.1,2.8 1.9,3.3 l 2.6,-3.6 z"
   id="path27" />
	<path
   class="st0"
   d="m 393,285.1 c 2.2,2.1 2.3,4.6 5.7,5.2 1.2,-2.4 -1.2,-2.9 -1.6,-4.9 -1.5,4 -0.8,-1.9 -3.9,-0.2 0,-1 0.2,-1.7 0.5,-2.4 -0.7,0.5 -1.5,0.9 -2.3,1.2 h 0.2 v 0 0 c 0.4,0 0.6,0.1 0.4,0.2 0,0 0,0.1 0,0.1 0.5,0.3 0.8,0.5 1,0.8 -1.2,0.7 -0.8,-0.2 -0.9,-0.8 l -0.4,-0.3 v 0 l -0.7,4.5 c 0.8,-0.5 1.3,-1.5 2,-3.4 z"
   id="path28" />
	<path
   class="st0"
   d="m 416.9,274.5 c -0.3,0 -0.5,-0.1 -0.7,-0.2 0.2,0.4 0.4,0.6 0.7,0.2 z"
   id="path29" />
	<path
   class="st0"
   d="m 414.4,275.1 c -0.2,-0.5 -1.1,-1.3 -0.3,-2 1.2,-0.3 1.2,0.7 2.1,1.2 -0.4,-0.9 -0.8,-2.9 -3,-2 l 0.2,0.5 c -1.8,0.9 -6.1,0.9 -6.3,0.4 2.6,0.9 4.4,1.5 7.3,1.9 z"
   id="path30" />
	<path
   class="st0"
   d="m 404.3,280.6 -0.5,3.8 3.2,-0.2 -1.4,-0.7 c 1.5,-1.5 -0.4,-2.1 -1.3,-2.9 z"
   id="path31" />
	<polygon
   class="st0"
   points="383.9,290.3 386.8,294.4 386.4,292.3 "
   id="polygon31" />
	<polygon
   class="st0"
   points="382.1,294.9 383,296.8 384.4,296.5 "
   id="polygon32" />
	<path
   class="st0"
   d="m 263,560.1 -1,3 c 0.5,-1.1 0.8,-2.1 1,-3 z"
   id="path32" />
	<path
   class="st0"
   d="m 269.5,550.3 0.1,-2.7 c -0.3,1.8 -0.4,3 -0.1,2.7 z"
   id="path33" />
	<path
   class="st0"
   d="m 326.8,392.8 c -3,-0.1 -7.3,-0.7 -4.5,0.7 l 2.8,1.2 c 0.1,-1.1 0.8,-1.6 1.7,-1.9 z"
   id="path34" />
	<path
   class="st0"
   d="m 302,467.9 c 0.3,0 0.7,0.1 1,0.1 -0.7,-0.9 -1.3,-1.7 -1.9,-2.4 0.2,0.7 0.6,1.5 0.9,2.3 z"
   id="path35" />
	<path
   class="st0"
   d="m 312.1,475.4 -2.7,0.7 c 0.8,0 1.7,-0.2 2.7,-0.7 z"
   id="path36" />
	<path
   class="st0"
   d="m 231.4,602.8 c -0.7,1.9 -1.4,3.3 -2.2,4.9 0.3,1.5 0.6,0.9 1,-0.3 0.3,-1.3 0.8,-2.9 1.2,-4.6 z"
   id="path37" />
	<path
   class="st0"
   d="m 361.4,337.2 c -1.7,0.5 -2.6,1.1 -3.2,1.8 2.2,-0.4 5.1,-0.1 3.2,-1.8 z"
   id="path38" />
	<path
   class="st0"
   d="m 267.3,492.6 c -0.2,1.3 -0.3,2.7 -0.3,4 0.2,-1.3 0.3,-2.5 0.3,-4 z"
   id="path39" />
	<path
   class="st0"
   d="m 356.2,342.3 c 0.4,0 0.6,-0.2 1,-0.2 0.1,-1.1 0.2,-2.1 1,-3 -1.8,0.3 -3.2,1 -2,3.2 z"
   id="path40" />
	<path
   class="st0"
   d="m 224.1,412.5 c 0.1,-0.1 0.2,-0.2 0.4,-0.3 -0.5,-0.1 -0.5,0.1 -0.4,0.3 z"
   id="path41" />
	<path
   class="st0"
   d="m 255.2,369.5 c 0.2,0.4 0.2,1.1 0.2,1.8 0.2,-0.3 0.2,-0.9 -0.2,-1.8 z"
   id="path42" />
	<path
   class="st0"
   d="m 373.9,311.6 c 0.3,-1 -0.2,-0.3 0,0 z"
   id="path43" />
	<path
   class="st0"
   d="m 386.6,313.7 c 0.2,0.4 0.5,0.7 1.1,1.1 -0.6,-0.5 -0.9,-0.8 -1.1,-1.1 z"
   id="path44" />
	<path
   class="st0"
   d="m 367.4,360.3 v 0 c 0.6,0.2 0.5,0.1 0,0 z"
   id="path45" />
	<path
   class="st0"
   d="m 375.8,311 c -0.5,0.1 -1,0.3 -1.4,0.6 0.3,0 0.7,-0.2 1.4,-0.6 z"
   id="path46" />
	<path
   class="st0"
   d="m 374.5,310.5 c 0.3,-0.2 0.5,-0.4 0.7,-0.6 -0.4,-0.4 -0.7,-0.4 -0.7,0.6 z"
   id="path47" />
	<path
   class="st0"
   d="m 373.3,312.8 c 0.2,-0.5 0.6,-0.9 1.1,-1.2 -0.3,0.1 -0.5,0 -0.5,-0.1 -0.1,0.3 -0.3,0.7 -0.6,1.3 z"
   id="path48" />
	<path
   class="st0"
   d="m 231.4,499.7 c 0.1,-0.2 0.2,-0.3 0.3,-0.5 -1.3,-0.3 -1.1,0.1 -0.3,0.5 z"
   id="path49" />
	<path
   class="st0"
   d="m 340.6,430.8 c 0,-0.1 -0.1,-0.1 -0.1,-0.2 l -0.2,0.1 z"
   id="path50" />
	<path
   class="st0"
   d="m 340.7,435 c -2.4,-3.2 -1.6,-3.7 -0.3,-4.3 l -8.1,-3.6 z"
   id="path51" />
	<path
   class="st0"
   d="m 247.2,586.7 c 0.3,1.2 0.6,2.4 1,3.5 -4.7,15.8 -6.4,15.6 -5.8,21.8 2.5,-12.8 4.8,-17 7.2,-21.2 2.4,-4.2 4.7,-8.4 6.2,-19.6 0.3,0.8 0.6,1.6 0.9,2.3 -0.4,0.4 -0.6,1.8 -1,2.3 1.8,5.7 3.7,-18.7 6.5,-20.7 1,-0.2 1.7,1.2 0.8,4.8 l 2.8,-8.9 c 0.7,-0.8 0.5,2.7 -0.3,3.5 l 4,-7.8 v 0.6 c 0.6,-3.6 1.6,-9.5 2,-12.2 1.1,0.9 -0.4,2.5 0,4.2 l 1.7,-7.1 c 1.2,2.7 -0.2,9.4 -1.8,11.3 1.5,6.6 2,4.6 2.7,1.5 0.7,-3.2 1.4,-7.2 4.3,-6.7 l -2,5.5 c 2.6,6.1 4.1,0 7.9,0.2 -0.6,-0.6 -2.7,-1.3 -4.2,-3.1 -1.5,-1.8 -2.4,-4.6 -1.5,-8.2 0.8,0 1.9,-1.1 2.6,-5.7 1.1,4.6 2.2,1.4 3.7,-1.5 l 1.6,5.8 c 1.4,-4.7 0.3,-7.2 0.4,-11.2 2.1,-2.5 4.3,0.6 6.3,2.9 2,-2.5 0.6,-2.9 -0.7,-3.8 -1.3,-0.8 -2.6,-2.2 -1,-5.5 3.5,-2.4 4.5,-7.4 5.5,-14 2.9,-1.7 1.7,2.5 3.2,2.4 -0.3,-1.7 -0.7,-3.4 -1.1,-5 0.4,-0.5 1.2,0.4 1.5,0.8 0.2,-3 -3.3,-3.1 -2.5,-6.8 -3.4,-3.9 9.1,-0.9 6,-6.6 1.5,0 2.1,1.8 3.7,2.5 -0.9,-5.6 -0.3,-4.5 -2.7,-10.1 l 4.1,-1 c -4,0.1 -5.9,-4.4 -7.4,-8.2 -1.8,-0.2 -3.3,-0.4 -4.2,-0.4 v -4.6 c 0.9,0 2,1.1 3.2,2.7 -0.2,-0.4 -0.4,-0.8 -0.5,-1.2 2.1,-0.3 4,1.7 5.6,3.8 -1,-0.1 -2.1,-0.2 -3.1,-0.3 1.8,2.3 3.9,4.6 6.2,5.8 -0.3,-0.5 -0.4,-1.1 -0.4,-1.7 0.5,0.6 1,1.1 1.4,1.2 0.5,0.1 -0.2,-0.7 -0.8,-1.9 l 4.7,1.9 -1.6,-1.2 5.4,-2.7 c -2.3,-5.8 -7,-12.4 -5.7,-18.4 2.4,3.1 4.9,3.4 8.6,5.8 -4.7,-1.1 -0.7,4.9 -3.1,6.9 1.2,-1.1 2.8,0.3 3.2,1 l -0.7,-6.8 c 3,2 2.9,0.4 4.9,0 -6.5,-2.8 -1.9,-5.9 -2.6,-8.8 2.1,1.1 3.9,2.8 2,4.8 6,0.3 -5,-7.6 0.3,-7.7 -0.3,0.6 -0.8,0.7 0.1,1.5 -1,-2.4 2.4,-4.7 3.7,-2.9 l -0.3,0.6 c 3,-3.2 6.9,-11.2 2.2,-14.8 0.7,0.4 5.8,4.2 6.7,5.1 l -13.1,-17 c 4,3.3 15.8,7.4 16.4,12 1.2,-0.5 2.6,-1.1 2.1,-3.9 -1,0.2 -7.2,-2.4 -7.1,-3.4 6.2,0.7 3.6,0 9.4,-0.2 -1.5,0.3 -7.7,-4.9 -6.6,-6.1 0.9,0.8 6.8,4 7.2,5 l -4.6,-7.6 c 0.7,1.6 5.6,3.6 8,4 -1.5,-0.4 2,-3 1.9,-4.3 l -2.5,0.5 c 3.4,-3.4 -7.1,-9.7 -4.3,-13.4 1.1,1.3 7.8,6.4 9.9,4.9 -2.9,-3 -14.1,-14.2 -14.6,-19.3 l 2.4,0.5 -0.6,-4 c 4.2,4.8 12.3,16.2 14.9,21.3 2.5,-0.5 2.6,1 3.8,-1.3 2.3,0.3 2.1,2.9 1.8,3.7 l 4.4,-4.5 c -4.2,-2.2 -1.6,-6.4 -5.1,-8.3 l 0.7,8.2 c -4.2,-2.2 -9.4,-10.2 -6.5,-13.5 2.2,0 6.7,5.1 8.1,5.8 -1.1,-1.3 -0.5,-5.1 0.7,-4.9 l 1.2,2.9 c 2.8,-1.1 -3.3,-6.6 2,-6.7 0.8,-0.7 6.7,0.6 4.4,-1 -5.4,-1.4 -19.8,-9.7 -22.7,-12.8 0.5,-0.1 7.1,-1.8 10,-1.4 4.5,0.8 7.3,7.3 11.1,8 -1.1,-0.7 -2,-2.3 -2.2,-2.9 1.5,-0.3 3.2,2.4 3.9,0.2 -3.9,-2.8 2.7,-3.8 -2.9,-3 0,-2.6 2.1,-1.5 3.2,-3.9 -3.1,-0.9 -7.8,-7.4 -7.8,-10 1,0.7 2.6,1.1 3.3,1.3 2.7,-3.7 5.8,-4.7 8.1,-8.3 1.2,0.3 3.4,-0.8 4.8,1 -0.4,-1 -1.5,-2.3 -0.9,-3.5 4.8,0 -1,2.8 4.3,3.7 -2.3,-1.6 -1.5,-4.9 -2.1,-7.4 -4,-1.7 -2.9,3.3 -2.4,5.8 -5.1,-3 -8.7,-9 -8.8,-14.2 0.6,-3.8 4.1,0.7 3.7,-0.3 4.3,-5.1 -6,-10.1 0.5,-12.7 4.4,0.1 6.5,3.8 9.1,4.7 -0.3,3.2 -4.3,2.6 -5.2,4.3 l 2.8,-1.1 c 0.6,1.4 0.4,3.6 -1,3.9 3.9,0.2 6.3,-9.3 11.6,-12.1 -0.6,-1.4 -0.9,-3.4 -2.6,-3.6 l -0.4,1.7 c -3.4,-0.3 -2,-4.8 -4.3,-3.7 -0.7,-3 -2.4,-6.8 0.7,-8.5 l 4,1.7 c -1.1,-0.6 -3.2,0.4 -2.5,1.8 -1,-2.1 7.4,-1 3.3,-5.1 l -3.7,0.3 c -0.7,-3 -3.3,-7.6 -0.7,-9.3 -4.3,-1.1 0.1,0.8 -5.2,-0.1 6.2,1.7 -3.8,5.8 3.2,6.8 -6,-1.3 -3.8,1.7 -9.4,1.4 1.3,0.7 2.8,0.6 1,2.2 0.3,0.3 0.6,0.8 0.8,1.1 -0.1,0 -0.1,0 -0.2,0.1 h 0.2 c 0.1,0.2 0.2,0.2 0.1,0 0.8,-0.1 1.7,-0.1 2.4,0.1 2.2,2.6 0.3,5.7 1.1,7.6 -1.3,0.8 -1.1,-1.3 -2.8,-1.5 l 1.2,2.9 c -2.8,-1.5 -6.3,0.4 -6.3,-3.3 l -1.6,2.4 c -2.4,0.5 -4.2,2.2 -3.8,4.1 -1.3,0.8 1.2,4.7 -0.3,2.4 l -0.6,4.8 -0.7,-0.4 c -2.6,3.6 -0.2,10.5 -7.7,11.9 -0.1,1.7 0,3.5 -2.1,5.2 l -2.6,-1 c -0.2,2.1 -5.3,3.5 -3.3,5.7 -7.3,-2 -6.2,7.1 -9,9.3 l 3,1.9 c -1.4,1.9 -1.7,4.3 -1.9,7.5 l 2.8,1.5 c 0.9,3.5 -5.2,4.3 -7,7.8 -0.9,-0.9 -0.1,-1.5 0.9,-1.8 -8.5,0.3 -0.7,11.1 -7.3,12.1 0.4,1.5 -0.3,1.9 -1.4,2.2 0,-0.1 0,-0.2 0,-0.3 -0.1,0.1 -0.2,0.2 -0.3,0.4 -0.7,0.1 -1.5,0.2 -2.2,0.4 0.9,0 1.6,0 2.1,-0.2 -0.4,0.7 -0.7,2 -0.6,3.4 l -3.2,-1.3 c 0,0.1 -0.1,0.2 -0.1,0.3 -1.7,0.4 0.9,1.6 3.4,2.4 0.2,0.8 0.4,1.6 0.9,2.4 -5.2,-2 -0.1,3.7 -5.7,1.8 2,2.2 -1.4,6.3 3.4,10 -0.7,-0.4 -1.2,-0.3 -0.9,-0.8 -1.3,0.8 -2.6,1.6 -1.8,3.5 l -4,-1.8 3.4,5.5 c -3.2,0.2 -4.9,0 -6.7,-3.2 2.1,6.3 -0.2,4 2.2,9.7 l -2.3,-1.6 c -0.6,1.2 1.5,4.9 -0.9,4.4 -6,-0.3 -8.2,11.9 -16.3,15.8 7.7,3.1 -4.9,1 0.3,4.6 -1.9,-0.6 -3.4,-0.3 -4.1,-2.2 -0.4,4.3 -5.6,3.3 -2.5,8.3 -1.9,-0.6 -2,-2.2 -3.2,-2.5 0.2,0.5 0.8,1.9 -0.4,1.6 -1.2,-0.3 -1.1,-1.3 -1.5,-2.3 -1.8,3.5 3.1,7 7.7,10.1 -3.3,0.3 -3.5,1.3 -1.1,4.5 -1.9,-0.4 -4.2,-0.4 -3.4,-2.8 -0.9,1 -6.7,5.7 -2.9,8.2 -1.2,-0.2 -1.3,1.4 -1,2 -1.8,2.5 -2.3,2.5 -3.6,5.3 l 1.1,-0.3 c 4,3.8 -0.4,2.9 -0.7,4.7 l -0.4,-0.4 c -2.6,0.5 -2.4,1 -2.3,1.7 0.1,0.6 0,1.4 -2.4,1 l 2.3,2.7 c 2.3,3.2 1,3.3 -0.7,2.8 -1.7,-0.4 -3.4,-1.7 -3.3,0.7 0.5,0.5 0.9,0.9 1.4,1.3 0.3,1.9 -1.5,0.1 -3.2,-2.6 -1.7,-2.7 -3.3,-6.3 -3.7,-6.6 -0.3,-0.7 -0.3,-1.5 -0.4,-2.2 -2.4,-4.2 1.7,5.7 1.1,8.4 -0.9,-3 -1.9,-8.4 -2.4,-8.4 -0.4,-1.2 0,1.8 -0.1,4.9 0,3 -0.5,6.1 -1.1,2.8 0.3,2.9 0.8,5.6 0.5,8.7 -0.4,1.2 -1,-1 -1.4,-2.4 -0.5,-1.3 -0.7,-1.8 -1.2,4.5 -0.1,-0.9 -0.1,-1.8 0,-2.7 -0.6,3.7 -2,7.8 -3.1,15.4 0.9,-12.4 0,-8.3 -1.4,-3.2 -1.3,5 -3.1,10.8 -0.6,-3.1 l -1.9,4 0.6,-3.1 c -0.5,-0.5 -2.4,7.3 -4.6,15.7 0.2,-1.7 1.1,-5 1.5,-6.7 0,-0.4 0,-0.7 0,-1 -0.2,-2.5 -0.6,-0.2 -6.3,17.9 l 2.9,-11.2 c -0.5,1.8 -0.7,1.9 -0.6,1 0.3,-1.8 0.7,-4.2 1.1,-6.7 0.8,-4.9 1.5,-8.6 -0.7,-3.9 0.4,-1 1,-2.7 1.6,-4.3 -2.2,4.5 0.1,-4.3 1.4,-8.9 1.3,-4.8 1.6,-5.8 -4.9,8.5 -1.1,1.7 -2.1,3.3 -3.2,4.7 -0.5,2.8 -1.9,6 -3.4,8.9 -1.5,3 -3.2,5.8 -4.3,9.2 -0.8,-0.5 3.9,-13 4.6,-12.3 l -0.6,1.7 c 6.7,-13.7 2.4,-9.7 7,-18.5 -0.1,-2.6 0.7,-7 1.7,-10.7 0.9,-3.8 2,-7 2.1,-9.2 l -5.2,5.3 0.3,-2.3 c 1.2,-1.5 4,-3.8 3.8,-2.5 2.9,-2.9 -2.4,0.1 -3.6,0.6 1.1,-2.1 2.6,-2.7 3.8,-3.2 1.3,-0.4 2.3,-0.7 2.3,-1 l -0.4,-0.5 -0.6,0.6 c -2.1,0.7 -4.3,1.9 -4.1,0.2 1,-1.5 3.2,-2 3.4,-2.4 0.4,-0.2 0.5,-0.3 0.2,-0.5 l 0.5,-1.9 c -1.4,0.6 -2.7,1.2 -4.1,2 -2,-0.5 0.2,-2.4 -4.4,-0.1 1.8,-1 2.8,-2 3.4,-3 0.6,-1.1 0.8,-1.8 0.8,-4 0.1,-3.7 -0.5,-7.2 0.6,-8 -2.9,-2.6 -2.9,-5.1 -2.5,-8.1 -0.8,0.8 -5.4,1.2 -4.8,-1.5 9.4,1.1 4.1,-4.8 10.9,-6.9 -4.5,1.9 -1,-7.6 -7.4,-4.6 0.8,-2.2 3.5,-0.1 5.7,-1.8 -3.6,-5.3 2.5,-11.7 1.3,-18.2 -1.2,-0.1 -3.1,1 -4.9,-0.5 l 6.2,-3.4 c -0.6,-1.3 -7.1,-1.3 -2.8,-3.6 -1,0.3 -2.6,0.8 -3,-0.1 6.1,-12.8 -4.7,-26.3 6.7,-39.2 -2.4,1.7 -2.6,0.6 -2.7,-0.8 -0.6,0.9 -3,0 -4.7,0.1 l 4.7,-5.4 c -4.6,-1 -0.3,-5.9 -4.7,-6.5 l 0.8,1.7 c -5.2,-2.3 -11.7,3.1 -18.4,2.7 5.9,2.6 -8.9,6.7 -0.4,11 -1.4,0.9 -2.2,-0.8 -3.7,-0.3 2.9,1.1 3.5,2.4 2.1,4.8 l -0.7,-0.3 c 0.6,6.7 -2.2,9.6 -4.2,17.1 l 3.3,-0.5 c -0.5,1.6 -1.5,2 -2.3,2.7 5,1.9 0.3,-4.6 5.9,-2.8 -6.8,2.1 -0.2,11.4 -7.9,12.8 -0.1,2.5 3.9,-0.7 3.8,1.8 l -2.1,0.6 2.7,0.7 c -0.5,1.6 -3.1,2.4 -4.8,2.5 0.2,-0.4 -0.5,-1.1 -0.6,-1.6 -2.5,2.1 0.8,6 0,6.7 l 1.3,-2.4 c 1.9,6.8 -0.9,15.1 3.2,21.8 L 230,438 c 2.9,5.1 -1.8,4 -0.5,9.5 l -0.4,-0.2 c 1.6,1.1 2.3,2.6 2.1,4.1 -1.8,-1.4 -3.6,2.6 -5.6,0.7 3.1,5.5 2.4,2.7 8.2,6.4 l -2.6,0.8 c 2.3,1.2 3.6,1.4 4.2,4.1 -2.2,-2.3 -4,1.7 -6.9,-0.8 -2.9,2.9 -1.5,5 -0.4,6.8 1.1,2.5 1.8,4.2 -2.3,6.8 7.2,2.6 4.1,-7.5 5.6,-5.5 2.4,-1.5 5.4,2.5 4.6,4.6 -0.2,2 -9.3,5.9 -9.2,13.2 0,-0.7 -0.5,-0.5 -0.5,-1.2 -1.9,3.6 2.5,3.8 -0.6,8.7 4.4,-1 -0.3,4.4 5.3,0.9 l -1.2,-5 c 0.7,1.3 2.7,1.6 4.1,2.2 1.4,0.7 2.2,1.7 0.6,5.5 -1.1,0.7 -2.6,0.4 -3.4,0 -1.7,3 1.1,2 -0.6,5.2 -2.8,2.4 -3.1,0.8 -3.2,-1.5 -0.1,-2.2 -0.1,-4.9 -2.2,-5.5 -2.4,3.7 4,4.5 -2.1,7.2 3.8,-1.5 3.6,0.2 3.1,2.7 -0.5,2.4 -1.2,5.5 1.7,4.7 l -3.4,3.3 c 0.5,0.2 2.1,0.1 2,1.5 -1.4,0.8 -2.9,1.6 -4.3,2.3 1.9,0.1 1,2.8 0,6.1 -1,3.2 -2.2,6.8 -1.1,7.5 -0.3,-8.1 4,-7.1 6.3,-13.4 2.3,1.6 0.2,5.5 -2.3,10.6 -2.4,4.9 -5.2,11 -3.9,14.9 -0.6,-0.7 1.5,-8.2 3.1,-8.3 -0.5,2.9 -1.5,7.3 -3,11.2 1.4,5.1 3.1,-6.4 5.3,-7 -3.5,8.5 1.9,0.2 3.2,0.3 l -3,5.6 c -1.1,9.9 6.2,-10.2 4.5,-0.5 l -4.1,5.8 1.3,0.8 -3.2,6.1 c 2.8,-1.8 2.2,0.4 1.8,5.3 1.7,-4.9 4.7,-10.5 5,-8.2 -1.3,5.4 -2.5,4.8 -1.7,7.6 -1.6,3 -3.7,6.8 -1.6,-0.4 -0.8,1.8 -1.7,3 -2.5,4.7 -1.4,6.1 0.4,6 0.7,7.3 0,-0.8 0,-1.7 0.3,-2.9 1.4,-1 2.8,-2 4.1,-3.1 -0.7,3.2 -1.5,4.4 -2.3,5.6 0.4,0.5 1.6,-1.7 2,-0.5 -1.9,4.7 -3.7,10.2 -5.1,10.2 l 3,-0.2 c -0.7,2.6 -1.5,9.3 -2.3,10.5 -0.3,6.5 4.9,-2.1 4.6,6.6 0.4,-1 0.8,-1.9 1.3,-2.4 0.4,1.5 0.3,4.7 0.5,6.9 0.2,2.2 0.8,3.5 2.6,-0.6 0.1,-0.3 0.2,-0.6 0.3,-0.9 l -1.3,11.3 c 1.8,-3.9 2.1,-7.2 2.7,-11.3 0.6,-4 1.6,-8.9 4.2,-14.8 3.8,-9 -1.4,10 -1,12.1 3.2,-9.7 7.9,-26.6 8.9,-20.7 -0.7,3.8 -1.1,3.1 -2.2,5.4 z m 31.5,-53.9 c -0.4,1.9 -1.2,7.3 -2,4.9 -0.1,-7.1 0.7,-4.9 2,-4.9 z m 31.6,-66.1 c 0.7,1 -0.2,1.4 -1.8,1.5 0.2,-0.6 0.7,-1.2 1.8,-1.5 z m 60.5,-144.6 0.1,0.1 c -2,0.7 -1.2,0.5 -0.1,-0.1 z m 2.9,-2 c -0.2,-0.5 -0.7,-0.7 -1.1,-0.9 0.6,0.6 0.3,1.3 -0.3,1.9 0.8,0.2 1.6,0.2 1.4,-1 z m -119.3,155.8 -0.9,0.7 c -1,-0.3 -0.1,-0.4 0.9,-0.7 z"
   id="path52" />
	<path
   class="st0"
   d="m 311,474.5 c -0.6,-0.1 -1.2,-0.4 -1.7,-0.7 0.3,0.6 0.8,0.9 1.7,0.7 z"
   id="path53" />
	<polygon
   class="st0"
   points="231.8,601.6 231.4,602.8 231.8,601.8 "
   id="polygon53" />
	<path
   class="st0"
   d="m 372.1,378.4 c -0.8,0.3 -1.5,0.3 -2.2,0.2 0.7,0.5 1.5,0.6 2.2,-0.2 z"
   id="path54" />
	<path
   class="st0"
   d="m 377.7,302.2 -0.3,2.3 c 0.4,-1 1.2,-0.9 1.9,-1.1 -0.7,-0.4 -1.9,-0.6 -1.6,-1.2 z"
   id="path55" />
	<path
   class="st0"
   d="m 405,297.2 c -0.2,-0.5 0.3,-0.6 0.1,-1.1 l -1.4,-0.7 c -0.6,1.2 0.1,2.6 1.3,1.8 z"
   id="path56" />
	<path
   class="st0"
   d="m 388.4,306.3 c 2.5,1.3 2.4,-0.3 2.7,-1.9 0,0.1 -0.1,0.2 -0.1,0.2 -3.3,-2.4 -3,-0.4 -2.6,1.7 z"
   id="path57" />
	<path
   class="st0"
   d="m 391.1,304.1 c 0.1,-0.5 0.3,-0.9 0.6,-1.2 -1.2,-1 -0.5,0.3 -0.6,1.2 z"
   id="path58" />
	<path
   class="st0"
   d="m 374.2,315.5 c 1,-0.2 -2.9,-2.2 -1.7,-2 -2.7,-2.5 1.4,6.3 1.7,2 z"
   id="path59" />
	<polygon
   class="st0"
   points="393.7,308.7 395.7,310.8 397,310 "
   id="polygon59" />
	<path
   class="st0"
   d="m 388.8,318.7 2,-1.5 c -0.5,-0.3 -0.7,-0.7 -0.7,-1.2 -0.8,1.2 -2.2,2.2 -1.3,2.7 z"
   id="path60" />
	<path
   class="st0"
   d="m 390.2,316 c 0.4,-0.6 0.8,-1.3 0.5,-1.9 -0.2,0.4 -0.6,1.2 -0.5,1.9 z"
   id="path61" />
	<polygon
   class="st0"
   points="395.3,313.6 394.2,314.9 396.3,313.3 "
   id="polygon61" />
	<path
   class="st0"
   d="m 375.3,340.1 -0.5,2.7 c 0.9,0.8 1.9,0.6 2,-0.4 -0.4,-1 -0.3,-2.1 -1.5,-2.3 z"
   id="path62" />
	<path
   class="st0"
   d="m 387.5,338.4 c -1,0.2 -1.7,-0.1 -2.9,-0.4 l 3.7,2.3 z"
   id="path63" />
	<path
   class="st0"
   d="m 384.5,345.3 c 0.9,0.8 1.1,5 2.5,2 -0.9,-0.8 -0.4,-3.5 -2.5,-2 z"
   id="path64" />
	<polygon
   class="st0"
   points="360.1,375.1 353.9,371.5 359.8,375.7 "
   id="polygon64" />
	<path
   class="st0"
   d="m 356.7,413.7 c 3.1,-1.7 -3.4,-2.9 -0.1,-4.2 -1.1,-1.5 -2.7,1 -3.5,-0.4 0.5,2.6 -0.9,2.9 3.6,4.6 z"
   id="path65" />
	<path
   class="st0"
   d="m 353,409.2 c -0.1,-0.4 -0.2,-0.8 -0.4,-1.4 0.1,0.7 0.2,1.1 0.4,1.4 z"
   id="path66" />
	<polygon
   class="st0"
   points="260.6,360.4 258.2,361.7 259.1,362.4 "
   id="polygon66" />
	<path
   class="st0"
   d="m 253.8,358.6 4.6,-0.4 -4.1,-1.2 c 0.1,0.4 0.5,1.2 -0.5,1.6 z"
   id="path67" />
	<path
   class="st0"
   d="m 286.5,537.6 -0.2,-1.7 c -0.7,-1.1 -1.2,-0.5 -2.1,0.7 0.7,0.4 1.5,0.7 2.3,1 z"
   id="path68" />
	<polygon
   class="st0"
   points="260.6,572.4 260.5,564.9 260.2,572.9 "
   id="polygon68" />
	<path
   class="st0"
   d="m 236,621 c 0.9,-1 2.5,-5.3 3.3,-6.4 -2.5,5.4 -0.5,-7.6 -3.3,6.4 z"
   id="path69" />
</g><g
     id="g138">
	<path
   class="st0"
   d="m 388.5,376.7 c 0.5,1 1.5,-0.1 1.9,-0.1 -1.4,-1.4 -2.2,0.4 -1.9,0.1 z"
   id="path70" />
	<polygon
   class="st0"
   points="375.5,363.9 372.6,362.9 374.8,364.1 "
   id="polygon70" />
	<path
   class="st0"
   d="m 362.9,352.1 c -0.5,2.9 4.7,3.9 6.3,6.6 v 0.7 l 2.4,-0.5 c -3,-2.3 -7.3,-4.6 -8.7,-6.8 z"
   id="path71" />
	<path
   class="st0"
   d="m 358.9,342.1 c -0.1,1.1 -2.1,-0.6 1.6,1.6 -0.1,-0.2 -0.1,-0.3 -0.2,-0.4 -0.3,-0.2 -0.7,-0.5 -1.4,-1.2 z"
   id="path72" />
	<path
   class="st0"
   d="m 360.3,343.3 c 1.5,1.1 -0.4,-1.4 0,0 z"
   id="path73" />
	<path
   class="st0"
   d="m 353,338.8 2.6,0.6 c -0.1,-0.8 -1.9,-2 -1,-2 -2.5,-0.9 -2.3,-0.1 -1.6,1.4 z"
   id="path74" />
	<path
   class="st0"
   d="m 350,339.1 1.3,0.4 c -0.1,-0.3 -0.3,-0.6 -1.3,-0.4 z"
   id="path75" />
	<path
   class="st0"
   d="m 354,340.3 -2.7,-0.8 c 0.1,0.5 -0.3,1.2 1.2,0.4 -0.6,0.5 0.2,0.2 1.5,0.4 z"
   id="path76" />
	<path
   class="st0"
   d="m 355,341.4 c 0.9,1.1 2,2.5 -0.4,1.8 3.9,2.5 4.4,0.6 0.4,-1.8 z"
   id="path77" />
	<path
   class="st0"
   d="m 360.5,353.5 c 0.3,0.5 0.6,1.1 0.8,1.7 l 1.6,0.4 c -0.7,-0.3 -1.9,-2.8 -2.4,-2.1 z"
   id="path78" />
	<path
   class="st0"
   d="m 340.3,330.2 c -0.4,0.4 0.1,1.6 0,2.3 l 1.9,0.3 c -0.7,-0.8 -2.1,-1.8 -1.9,-2.6 z"
   id="path79" />
	<path
   class="st0"
   d="m 340.3,332.5 -2.8,-0.4 c 2.1,1.2 2.6,1 2.8,0.4 z"
   id="path80" />
	<polygon
   class="st0"
   points="352.9,342 347.5,340.9 348.2,341.3 "
   id="polygon80" />
	<polygon
   class="st0"
   points="332.6,325.4 329.4,326.1 330.7,326 "
   id="polygon81" />
	<path
   class="st0"
   d="m 324.2,323.8 c 1.4,-0.7 -1,-2.1 0.4,-2.3 -1.9,-0.4 -3.7,0 -5.3,0.4 1.5,0 3.1,0.5 4.9,1.9 z"
   id="path81" />
	<path
   class="st0"
   d="m 316.6,322.3 c 0.8,0 1.7,-0.2 2.6,-0.5 -0.8,0.1 -1.7,0.2 -2.6,0.5 z"
   id="path82" />
	<path
   class="st0"
   d="m 333.4,330.1 c -0.1,-0.4 -0.1,-1.3 -1.4,-2.2 l 0.4,1.8 c 0.4,0.1 0.7,0.2 1,0.4 z"
   id="path83" />
	<path
   class="st0"
   d="m 332.5,329.7 v 0 c -1.1,-0.5 -1.8,-0.8 -2.1,-1 0.2,0.2 0.9,0.5 2.1,1 z"
   id="path84" />
	<path
   class="st0"
   d="m 333.7,330.2 -0.2,-0.1 c 0,0.1 0,0.2 0.2,0.1 z"
   id="path85" />
	<path
   class="st0"
   d="m 343,336.6 c -1.8,0 -5,-0.6 -2.9,1.9 1.5,-0.4 0.2,-1.8 2.9,-1.9 z"
   id="path86" />
	<path
   class="st0"
   d="m 334.1,332.3 c 0.8,0.4 1.6,1 2.4,1.5 0.1,-0.4 -0.1,-1.1 0.8,-1.2 -1.1,0 -2.1,-0.2 -3.2,-0.3 z"
   id="path87" />
	<polygon
   class="st0"
   points="334.1,332.3 333.2,331.9 332.7,332.3 "
   id="polygon87" />
	<path
   class="st0"
   d="m 321,325 c -1.4,0.3 -2.7,0 -4.2,-0.3 1.5,0.7 3,1.3 4.6,1.8 0.3,-0.5 1.3,-1.1 -0.4,-1.5 z"
   id="path88" />
	<path
   class="st0"
   d="m 326.6,327.2 h -0.3 c 0.1,0.2 0.2,0.3 0.3,0 z"
   id="path89" />
	<polygon
   class="st0"
   points="302.5,322 302.6,321.8 302.3,321.7 "
   id="polygon89" />
	<path
   class="st0"
   d="m 321.6,326.8 c 1.1,0.6 1.9,0.5 2.7,0.2 -0.9,-0.1 -1.9,-0.3 -2.9,-0.5 -0.2,0.1 -0.2,0.2 0.2,0.3 z"
   id="path90" />
	<path
   class="st0"
   d="m 312.4,322 1.9,1.3 c -0.5,-0.7 -1.6,-1.7 -1.9,-1.3 z"
   id="path91" />
	<path
   class="st0"
   d="m 326.1,326.7 h 0.2 c -0.3,-0.5 -0.3,-0.3 -0.2,0 z"
   id="path92" />
	<path
   class="st0"
   d="m 326.1,326.7 c -0.7,0 -1.2,0.1 -1.8,0.3 0.7,0.1 1.4,0.2 2.1,0.2 -0.2,-0.1 -0.3,-0.3 -0.3,-0.5 z"
   id="path93" />
	<path
   class="st0"
   d="m 296.8,330.8 c 0.3,-1.3 3.5,-2.6 5.8,-0.5 2.6,-0.6 1.8,-5.4 -0.2,-8.3 -0.2,0.6 -0.2,1 -3.1,1.7 0.9,0.7 5.7,2.6 3.3,3.5 -3.6,0.1 -2.8,-0.8 -4.5,-1.8 1.3,1.8 -4.7,2.1 -4.1,4.7 l 3.1,-0.6 c 0.1,0.4 -1.1,0.9 -0.3,1.3 z"
   id="path94" />
	<path
   class="st0"
   d="m 307.7,323.1 h 1.2 c -1.2,-0.5 -2.1,-1.2 -3.6,-2.6 -2,0.3 -2.5,0.8 -2.7,1.2 l 5.5,1.2 z"
   id="path95" />
	<path
   class="st0"
   d="m 313.9,324.1 c -1.2,1.2 -4,1.4 -2.7,3.3 3.2,0.6 2.5,-0.7 4.6,-0.8 -5.3,-1.1 1.7,-0.4 -1.9,-2.3 1.1,0 2,0.2 2.9,0.4 -0.9,-0.4 -1.8,-0.9 -2.6,-1.4 l 0.1,0.1 v 0 0 c 0.2,0.2 0.2,0.4 0,0.2 h -0.1 c 0,0.2 -0.2,0.4 -0.3,0.5 -1.4,-0.7 -0.1,-0.5 0.4,-0.5 0,-0.1 0.1,-0.1 0.1,-0.2 v 0 c -1.8,-0.3 -3.7,-0.2 -5.5,-0.3 1,0.5 2.5,0.6 5,1 z"
   id="path96" />
	<path
   class="st0"
   d="m 336.2,340.2 c -0.1,-0.2 0,-0.3 0,-0.4 -0.4,0 -0.6,0.1 0,0.4 z"
   id="path97" />
	<path
   class="st0"
   d="m 334.7,338.5 c 0.4,0 1,-0.4 2,0.3 0.7,0.9 -0.3,0.6 -0.5,1.1 0.8,0 2.8,0.2 1,-1.5 h -0.4 c -1.6,-1.4 -3.3,-4.3 -2.9,-4.4 0,1.5 0.1,2.6 0.8,4.5 z"
   id="path98" />
	<path
   class="st0"
   d="m 324.6,331.1 c -1.4,-0.3 -2.9,-0.5 -4.4,-0.6 l 1.7,1.8 0.1,-0.8 c 2.3,1.1 2.1,0.1 2.6,-0.4 z"
   id="path99" />
	<path
   class="st0"
   d="m 301.8,320.9 0.8,-1.5 c -1,0.6 -2,1.3 -2.9,1.9 z"
   id="path100" />
	<polygon
   class="st0"
   points="296.2,319.2 294.6,319.9 295.9,320.5 "
   id="polygon100" />
	<path
   class="st0"
   d="m 237.9,535 1.2,0.2 c -0.5,-0.1 -0.9,-0.2 -1.2,-0.2 z"
   id="path101" />
	<path
   class="st0"
   d="m 230.7,530.8 -0.5,0.5 c 0.5,-0.1 0.8,-0.3 0.5,-0.5 z"
   id="path102" />
	<path
   class="st0"
   d="m 176.7,388.3 c -2,1.2 -4.9,2.3 -3.3,2.8 l 1.7,0.1 c 0.3,-1.4 0.9,-2.3 1.6,-2.9 z"
   id="path103" />
	<path
   class="st0"
   d="m 180.5,481.9 0.2,-0.6 c -0.6,-0.2 -1.2,-0.5 -1.7,-0.7 0.4,0.4 0.9,0.9 1.5,1.3 z"
   id="path104" />
	<path
   class="st0"
   d="m 186.8,480.8 v 2.4 c 0.1,-0.6 0.2,-1.4 0,-2.4 z"
   id="path105" />
	<path
   class="st0"
   d="m 281.7,545.1 c 0.5,-0.5 0.9,-0.9 1.4,-1.5 -2.1,-0.1 -1.2,0.7 -1.4,1.5 z"
   id="path106" />
	<path
   class="st0"
   d="m 236.8,331.1 c -1.8,0.1 -3.1,0.4 -4.2,0.8 2.2,0 4.3,0.5 4.2,-0.8 z"
   id="path107" />
	<path
   class="st0"
   d="m 227.1,547.7 c 0.9,0.1 1.3,0 1.5,-0.3 -0.9,-0.2 -1.4,-0.1 -1.5,0.3 z"
   id="path108" />
	<path
   class="st0"
   d="m 228.3,334.2 c 0.3,0 0.6,-0.1 0.9,-0.1 1,-0.8 1.9,-1.7 3.4,-2.2 -1.7,0 -3.3,0.6 -4.3,2.3 z"
   id="path109" />
	<path
   class="st0"
   d="m 390.3,445.5 c 0.1,-0.1 0.1,-0.3 0.2,-0.4 -0.2,0 -0.2,0.2 -0.2,0.4 z"
   id="path110" />
	<path
   class="st0"
   d="m 394.9,392.6 c 0.3,0.5 0.7,1.3 1,2 0,-0.4 -0.3,-1 -1,-2 z"
   id="path111" />
	<path
   class="st0"
   d="m 272,320.3 c 1.3,-0.3 0.2,-0.2 0,0 z"
   id="path112" />
	<path
   class="st0"
   d="m 278.5,325.6 c -0.2,0.2 -0.4,0.4 -0.4,0.8 0,-0.4 0.2,-0.7 0.4,-0.8 z"
   id="path113" />
	<path
   class="st0"
   d="m 222.8,348.6 c 0,0 0,0 0,0 0.4,0.1 0.3,0.1 0,0 z"
   id="path114" />
	<path
   class="st0"
   d="m 274,320.7 c -0.5,-0.1 -1,-0.2 -1.7,-0.3 0.3,0.1 0.8,0.2 1.7,0.3 z"
   id="path115" />
	<path
   class="st0"
   d="m 273.6,320 c 0.4,0 0.8,0 1.1,0 0.2,-0.2 0,-0.3 -1.1,0 z"
   id="path116" />
	<path
   class="st0"
   d="m 270.3,320.5 c 0.7,-0.1 1.4,-0.1 2.1,-0.1 -0.3,-0.1 -0.4,-0.1 -0.3,-0.2 -0.5,0.1 -1,0.2 -1.8,0.3 z"
   id="path117" />
	<path
   class="st0"
   d="m 355.1,525.5 c 0.1,0 0.2,0 0.3,0 0.4,-1.2 0.1,-0.8 -0.3,0 z"
   id="path118" />
	<polygon
   class="st0"
   points="181.8,422 181.8,422.2 181.9,422.2 "
   id="polygon118" />
	<path
   class="st0"
   d="m 182.3,426.2 c -1.6,-1.9 -1.2,-2.9 -0.6,-4 l -4.5,0.5 z"
   id="path119" />
	<path
   class="st0"
   d="m 256.6,542 -2.2,-2 c 3.8,-1.3 5.7,0.1 3.9,-2.4 -0.8,2.2 -3.4,1.8 -5.9,1 -2.4,-0.8 -4.9,-1.6 -6,0.5 l -1.3,-1.6 c 0.5,0.2 0.6,0 1.1,0.2 -2.3,-3.3 -3.8,2.2 -7.6,-0.5 -1.3,-1 -1.9,-2.1 -0.7,-2.2 l -3.7,-0.5 c -0.9,-0.6 -0.2,-1.1 0.6,-0.6 -1.6,-0.7 -3.2,-1.7 -4.8,-2.5 l 0.1,-0.1 c -1,0.2 -3.2,0.3 -4.2,0.2 -0.8,-1.3 0.9,0 0.9,-0.7 -1.1,-0.2 -2.2,-0.4 -3.2,-0.7 -0.3,-1.7 2.4,-1.2 4.1,-0.1 0.3,-5.4 -2.8,-0.3 -5.9,-6.2 l 2.5,1.2 c 0.2,-3.2 -2,-3.8 -3.3,-6.9 -0.1,1.1 2.2,7.1 -1,6 -0.5,-0.9 -1.3,-1.7 -3.3,-2.1 1.1,-1.3 -0.4,-2.1 -2,-3.5 l 1.6,-1.5 c -2.1,-1.1 -2.7,-0.1 -4.4,-0.3 -1.7,-1.9 -0.8,-3.5 -0.1,-4.9 -2.3,-3.3 -0.2,4 -3.6,0.7 -1.5,-3.2 -4,-4.2 -7.4,-6.8 -0.8,-2.4 1.3,-0.5 1.4,-1.6 l -2.7,-0.7 c -0.3,-0.5 0.3,-0.6 0.6,-0.7 -1.6,-1.1 -1.9,1.2 -4.1,-0.8 -1.2,0.4 -1.4,-1.3 -1.6,-3.3 -0.2,-2 -0.5,-4.3 -2.6,-5.2 0.1,-1.1 1.4,-0.3 2,-0.9 -4,-3.3 -3.3,-2.9 -7.1,-5.5 v -3.7 c -0.6,3 -3.7,0.8 -6.4,-1.3 -0.4,1.1 -0.7,2.1 -0.8,2.8 -1,-1.3 -2,-2.6 -2.8,-4 0.2,-0.7 1,-0.5 2.2,0 -0.3,-0.2 -0.5,-0.5 -0.8,-0.6 0.3,-1.9 1.8,-1.5 3.3,-0.8 -0.3,0.7 -0.5,1.4 -0.8,2.1 1.7,0.6 3.6,1 4.7,0.3 -0.4,-0.2 -0.8,-0.6 -1.2,-1.1 0.5,0.1 0.8,0.2 1,0 0.2,-0.2 -0.5,-0.5 -1.3,-1 l 2,-1.8 -1,0.1 -0.3,-6 c -3.8,-3.1 -7.9,-6 -10.3,-12.7 2,1.4 3,-0.1 5.2,-0.3 -2,2.2 2,4.9 2.2,8.3 -0.1,-1.8 1,-1.6 1.4,-1.3 l -3.3,-5.5 c 1.8,-0.2 1,-1.5 1.6,-3.2 -3.3,1.7 -2.8,-4.2 -4.2,-6.6 1.2,-0.2 2.4,0.3 2.5,3.3 2.3,-3.5 -4.7,-4 -2.5,-7.5 0,0.7 -0.1,1.2 0.5,1.4 -1.1,-1.7 -0.3,-6 0.7,-5 v 0.7 c 0,-4.9 0.9,-14.9 -2.1,-16.1 0.4,0 3.4,1.1 4,1.5 -2.9,-3.3 -5.6,-6.8 -8.3,-10.6 2.4,1.3 8.9,-0.4 9.6,3.9 0.6,-1.1 1.1,-2.4 0.9,-5 -0.6,0.7 -4.1,1.1 -4.1,0 3.6,-2.3 2.1,-1.7 5.4,-4.6 -0.9,1 -4.4,-1.4 -3.7,-3.2 0.5,0.5 3.8,1 4,1.8 -0.9,-1.9 -1.7,-3.8 -2.3,-5.7 0.2,1.4 3.1,1.3 4.5,0.7 -0.9,0.2 1.5,-3.7 1.6,-5 l -1.6,1.5 c 2.4,-4.7 -3,-7.1 -0.4,-12 0.4,1 3.8,3.7 5.4,1.5 -1.4,-2 -5.8,-9.6 -4.3,-14.8 l 1.5,-0.2 c 0.3,-1.3 0.6,-2.7 1.1,-4 0.9,3.8 2.9,12.9 3.3,16.9 1.8,-1.2 1.5,0.2 2.9,-2.3 1.5,-0.3 0.6,2.2 0.2,2.9 l 4.1,-5.3 c -1.1,-0.5 -0.9,-1.9 -0.6,-3.4 0.3,-1.3 0.8,-2.7 -0.1,-3.2 -1,2.4 -1.5,5 -2.1,7.5 -2.1,-0.9 -3.5,-7.5 0.1,-11.2 1.5,-0.4 2.8,3.3 3.5,3.7 -0.3,-1 1.6,-4.6 2.3,-4.6 l -0.3,2.4 c 2.3,-1.6 0.3,-5.6 4.3,-6.4 0.9,-0.7 4.5,-0.3 3.6,-1.4 -3.1,-0.6 -9.5,-6 -10,-8.4 0.4,-0.2 6.3,-2.9 8.3,-2.7 2.9,0.3 1.2,5.6 3.7,5.9 -0.4,-0.5 -0.1,-1.8 0,-2.3 1.3,-0.4 1,1.8 2.7,-0.1 -1.2,-2.1 4.1,-3.3 -0.4,-2.3 1.6,-2.2 2.3,-1.5 4.7,-3.3 -1.8,-0.7 -0.9,-5.8 1,-7.9 0.2,0.6 1.2,0.9 1.6,1 4.5,-3.1 7.9,-3.2 12.2,-5.7 0.7,0.3 3.1,-0.2 2.6,1.2 0.5,-0.7 0.7,-1.7 2.1,-2.3 3.6,0.7 -3,1.6 0.1,3 -0.4,-1.3 2.8,-3.3 4.5,-5 -1.4,-1.7 -4.9,1.7 -6.5,3.3 -1.3,-2.6 0.9,-7 5.6,-10.5 3.8,-2.3 2.4,1.1 3,0.4 7.9,-1.8 5.1,-7.4 12.5,-6.8 3.1,1.3 0.9,3.6 1.8,4.8 -3.2,1.3 -5.5,0 -7.8,0.9 h 3 c -0.9,0.9 -3,2.1 -4.3,2 2.5,0.7 13.1,-3.4 19.4,-2.4 1,-0.7 2.8,-1.6 1.8,-2.3 l -1.9,0.5 c -2,-1.3 3.4,-2.5 0.9,-2.9 2.5,-1.2 5.5,-3.6 9.4,-2.7 l 0.8,2.1 c -0.1,-0.6 -2.5,-1.3 -3.6,-0.6 1.6,-1 5.9,2.8 7.5,0 l -2.7,-1.5 c 2.7,-1.1 6.2,-3.6 9.7,-2.5 -1.5,-2.2 -0.8,0.2 -3.2,-2.5 2.1,3.1 -9,0 -5.5,3.2 -2.6,-2.8 -4.4,-1.3 -7.9,-3.4 0.2,0.7 1.3,1.2 -1.7,1.2 -0.1,0.2 -0.4,0.5 -0.6,0.7 -0.1,0 -0.1,0 -0.2,0 l 0.2,0.1 c -0.1,0.1 -0.1,0.1 0.1,0 0.7,0.2 1.3,0.5 1.6,0.9 -1.3,1.8 -5.8,2.2 -7.3,3.2 -1.7,-0.1 0.6,-0.9 -0.4,-1.5 -0.7,0.5 -1.4,1 -2.1,1.6 -0.5,-1.5 -5,-1.6 -1.1,-3.4 l -3.7,0.7 c -2.3,-0.4 -5.4,-0.2 -7,1 -1.8,0.2 -3.7,3 -2.6,1.4 l -5.2,2.7 -0.2,-0.4 c -2.8,0.7 -5.2,2.6 -7.9,4 -2.6,1.5 -5.5,2.6 -9,3 -1.5,1.3 -3,2.7 -6,3.9 l -1.3,-0.9 c -1.9,1.6 -7,3.1 -7.1,4.8 -4.5,-1.6 -10.2,6.8 -13.8,9.3 l 1.1,1.4 c -2.3,2 -3.8,4.5 -5.9,7.7 l 1.3,0.9 c -1.3,3 -6.1,5.4 -9.1,9.6 -0.3,-0.6 0.6,-1.5 1.5,-2 -3.3,1.3 -4.7,4.3 -5.7,7.4 -1,3.1 -2,6 -4.3,7.8 -0.1,1.5 -0.7,2.3 -1.5,2.9 0.1,-0.1 0.1,-0.2 0.1,-0.3 -0.1,0.1 -0.2,0.3 -0.3,0.5 -0.5,0.4 -1.1,0.8 -1.6,1.3 0.6,-0.3 1.1,-0.7 1.5,-1.1 -0.4,1 -1,2.5 -1.3,4 l -1.8,-0.1 c 0,0.1 -0.1,0.2 -0.1,0.3 -1.3,1.1 0.2,1.4 1.7,1.2 -0.1,0.8 0,1.6 0.1,2.3 -3,0.1 -0.6,4.1 -3.9,4.6 0.5,0.7 0,2.6 -0.2,4.6 -0.1,2 0,4 1.4,4.8 -0.4,-0.1 -0.7,0.3 -0.5,-0.5 -0.8,1.5 -1.6,3.1 -1.2,4.7 l -2.3,0.2 c 0.6,1.4 1.2,2.8 2,4.3 -1.7,1.9 -2.6,2.7 -3.8,0.2 1.5,5.8 0.1,4.6 1.9,9.4 l -1.4,-0.4 c -0.1,1.7 1.5,4.4 0.3,5.3 -3.3,3.5 -1.1,18.1 -2,27.8 3.7,-2.5 -1.1,4.7 2.2,4.5 -0.8,0.7 -1.1,2.2 -2.2,0.8 2,4.6 -0.1,7.7 3.6,10.2 -0.8,0.8 -1.7,-0.6 -2.1,0 0.3,0.3 1.3,1.3 0.9,1.9 -0.4,0.7 -1,-0.5 -1.6,-1.1 1.7,4.9 4.7,4.4 7.4,3.8 -0.5,2.8 0.1,3.9 2.5,4.9 -0.5,1.1 -0.8,2.8 -2.3,0.1 0.6,1.6 2.9,10.3 5.1,9.4 -0.2,0.7 1,2.2 1.5,2.4 1.8,3.4 1.7,3.8 3.8,7 l -0.2,-1.1 c 3,-0.1 2.1,2.3 4.1,4.6 l -0.3,0.1 c 2.5,6.8 2.3,2 4.8,8.7 l 1.1,-1.3 c 3.2,-1.8 2.3,5.9 6,8.1 l -0.2,-1.7 c 2.2,0.8 0.8,7.7 2.2,9.7 0.1,0.6 -0.9,-0.2 -1.6,-0.5 2.9,5.7 2.1,-1.1 5.6,1.5 -0.2,1.4 -2.8,1.6 -0.7,3.7 0.7,1.7 9.1,2.4 11.1,6.4 -0.2,-1.2 -0.4,-2.4 1.6,-1.9 2.7,1.3 5.2,7.5 9.1,6.3 0.2,0.4 0.2,0.7 0.2,0.9 2.5,0.4 7.4,2.3 9.3,1.5 -0.2,6.2 14.4,2.7 12.7,7.4 l 7.1,1.7 -0.3,0.5 c 4.4,1.5 6.4,0.3 8.2,-0.6 1,0.5 0.1,0.9 0,1.2 6.4,2.4 7.3,1.9 13.1,-0.3 l 0.5,1.8 c 1.5,-0.7 9.8,3 16.4,0.6 0,0.2 -0.2,0.6 -0.7,0.9 3.6,-1.5 8.2,-0.6 12.2,-0.7 4,-0.1 7.4,-0.7 7.9,-4.1 1.5,-0.8 2.9,-1.9 4.3,-2.9 -6.1,1.4 0.1,-2.9 -2.6,-3.2 2.1,-1.1 6.5,-0.1 3.8,1.2 l -0.5,-0.2 c -0.1,3.5 7.8,-1.2 8.3,0.8 11.6,-4.6 23,-9.4 32.6,-16.5 l -2.6,-1.2 c 1.1,-0.8 2.1,-1.7 3.2,-2.5 1.2,-0.2 2.4,0.6 0.1,2.4 2.1,0.1 3,-4.2 2.6,-4.6 5,-3 0.3,3.7 1.6,2.6 l 1.7,-1.7 -0.6,0.1 c 0.7,-2.1 0.3,-2.8 2.7,-5.3 1.9,-1.2 1.9,0.3 2.6,-0.3 0.1,0.1 0.4,0 1,-0.9 l 3.8,-3.6 -2.9,0.2 c 0.8,-2.3 3.4,-3.5 0,-3.2 2.5,-0.1 5.6,-3.8 8.5,-7.4 2.7,-3.8 4.7,-7.8 5.7,-8.4 0.6,-3.4 1.7,-6.3 3.7,-9.6 -0.8,0.7 -3.1,0.2 -1.4,-2.6 3.9,3.1 4.3,-4.7 8.3,-6.1 -1.5,0.8 -0.7,-1.6 -0.2,-3.7 0.5,-2.2 0.6,-4.3 -1.4,-2.9 1.1,-2.6 1.7,0.4 3.4,-1.4 0.2,-6.9 4.9,-14.1 5,-22.7 -0.6,-0.2 -1.7,1.1 -2.4,-0.8 l 3.4,-4.1 c -0.2,-1.7 -3.3,-1.7 -1.2,-4.6 -0.5,0.4 -1.3,1 -1.5,-0.1 1.6,-8.1 0.4,-16.5 -1.5,-24.5 -1,-4 -1.8,-8.1 -2.9,-12.1 -0.9,-4.1 -1.5,-8.3 -2,-12.6 -0.2,2.5 -0.9,1.2 -1.6,-0.4 0.2,1.1 -1.4,0.6 -2.1,1.1 -0.2,-2.4 -0.3,-4.9 -0.7,-7.3 -2.7,0 -3.8,-6.4 -6,-5.9 l 1.4,1.7 c -3.6,-1.1 -3.2,6.3 -6.4,7.4 4.4,1.3 -0.8,8.9 5.2,11.6 -0.2,1.2 -1.4,-0.4 -1.9,0.4 1.9,0.6 2.6,1.9 2.8,4.8 l -0.4,-0.2 c 2.8,7.2 2,10.9 2.5,19.3 l 1.6,-0.9 c 0,1.9 -0.5,2.3 -0.8,3.2 2.7,1.8 -0.4,-5.2 2.5,-3.6 -1.5,1.5 -1.2,4.7 -0.9,7.8 0.2,3.1 -0.1,6.2 -1.9,7.1 0,2.8 1.9,-0.8 1.9,2 l -1,0.7 1.3,0.7 c -0.2,1.9 -1.7,2.7 -2.5,2.7 0.1,-0.4 -0.1,-1.3 -0.2,-1.7 -1.4,2.3 -0.1,6.6 -0.6,7.4 l 0.9,-2.6 c 0.6,7.8 -2.9,16.6 -3,24.3 l 0.9,-0.3 c -0.4,6 -2.4,4 -4,10.2 l -0.1,-0.3 c 0.3,1.5 -0.1,3.2 -1,4.7 -0.1,-1.8 -2.9,1.9 -2.9,-0.4 -1.4,6.2 -0.2,3.3 0.3,8.3 l -1.6,0.2 c 0.3,1.8 0.7,2.2 -0.7,5.1 0.5,-2.8 -2.7,0.6 -2.4,-2.6 -5.6,4 -3.5,9.6 -8.5,9.5 0.9,4.7 5.1,-3.3 4.6,-1.4 1.8,-0.4 0.6,3.7 -1,5.1 -1.3,1.8 -5.9,-0.2 -9.4,3.6 0.4,-0.4 0.2,-0.6 0.6,-0.9 -2,0.7 -1.7,3.8 -4.6,4.2 0.4,2.5 -2.4,1.9 -0.9,4.3 l 3.3,-3.7 c -1.6,2.3 -1.5,6.5 -6,8.4 -0.1,-0.7 0.5,-2.2 1,-3.1 -1.6,0.2 -1.6,2.2 -3.2,2.3 -1.3,-2.3 4.1,-4.3 5,-7.8 -1.8,0 -2.9,5.1 -3.7,1.9 0.4,2.1 -0.6,2.9 -1.9,3.7 -1.3,0.7 -2.9,1.3 -3.5,3.5 l -0.8,-1.5 c -0.3,0.5 -0.8,1.8 -1.7,2.4 l 0.3,-2.8 c -1.3,3.1 -5.3,1.9 -7.1,3.9 4.9,-2.8 2.2,1.1 4.9,0.9 -5.1,5.5 -5.8,-1.7 -12.1,2.8 0.8,-0.7 3.9,-1 2.8,0.5 -1.4,0.5 -3.5,0.7 -4.7,0.2 -4.6,2.4 1.4,1.2 -0.2,3 -2.5,-1.1 -2,1.8 -4,3.3 l -0.6,-1.6 c -5.9,1.1 -0.3,3.9 -5.9,4.4 l 1.5,-2.9 -2.5,1.4 v -2 c -2.5,2.2 -3.5,2.4 -6.5,2.4 1,1 0.4,3.1 -2.3,3.7 -2,-0.6 0.7,-1.8 -3,-0.8 0.6,-1.2 1.3,-2.7 3.2,-1.5 0,-0.6 0.6,-1.2 0.6,-1.8 -2.1,-0.7 -4.7,0.7 -6.1,1 0.5,0 1.1,-0.1 1.5,0.1 -1.6,1.2 -3.3,2.2 -5,3.2 -0.9,-0.5 -0.3,-1.1 0.3,-1.7 -1.1,0.3 -1.7,1.2 -3.3,1.5 0.3,-1.4 0,-2.8 2.2,-3.7 l -4.9,2.1 c -0.4,-0.5 -2.7,-1.4 -2.1,-1.9 -2.8,-0.8 -6.8,2.8 -10.6,1.7 -0.2,0.2 -0.6,0.5 -1.4,0.6 -3.5,-0.7 -6.4,-2.3 -10.8,-1.3 l -1.9,-2.8 c -3.3,0 2.6,3.6 -3,3.6 -4,0.1 -1,-2.3 -2.1,-3.3 -2.1,0.7 -6.1,2.2 -9,-0.7 1.5,-0.3 2.2,0.3 3.4,0.4 z m -36.5,-17.7 c 0.9,0.2 2.8,0.3 2.6,1.5 -1.9,0.9 -1.9,-0.3 -2.6,-1.5 z m -38.5,-49.5 c 0.7,0.4 0.7,1.4 0.5,2.6 -0.4,-0.7 -0.7,-1.5 -0.5,-2.6 z m 77,-150.9 -0.1,0.1 c -2.1,-0.2 -1.3,-0.1 0.1,-0.1 z m 4.3,-0.1 c 0.4,-0.3 0.3,-0.5 0.1,-0.7 -0.2,0.5 -1.1,0.7 -2.2,0.8 0.4,0.3 1,0.5 2.1,-0.1 z m 109.1,201.5 -0.9,0.3 c 0.9,-1.6 0.9,-1 0.9,-0.3 z"
   id="path120" />
	<path
   class="st0"
   d="m 186.1,480.9 c -0.2,0.3 -0.4,0.5 -0.7,0.7 0.4,0.1 0.7,0 0.7,-0.7 z"
   id="path121" />
	<path
   class="st0"
   d="m 281.4,545.3 h 0.1 c 0.1,-0.1 0.1,-0.2 0.1,-0.3 z"
   id="path122" />
	<path
   class="st0"
   d="m 214.9,363.2 c -0.7,0.3 -1.3,0.4 -1.7,0.3 0.2,0.3 0.7,0.4 1.7,-0.3 z"
   id="path123" />
	<path
   class="st0"
   d="m 285.1,318.7 -2.7,0.5 c 1.3,-0.1 1.8,0.3 2.5,0.5 -0.2,-0.4 -0.7,-1 0.2,-1 z"
   id="path124" />
	<path
   class="st0"
   d="m 306.9,331.1 c 0.4,-0.1 0.8,0.1 1.2,0 l 0.1,-0.8 c -1.6,-0.2 -2.8,0.2 -1.3,0.8 z"
   id="path125" />
	<path
   class="st0"
   d="m 287.5,324.3 c 0.2,1.5 1.8,0.8 3.7,0.8 -0.1,0 -0.2,0 -0.3,0 0.6,-2 -1.4,-1.6 -3.4,-0.8 z"
   id="path126" />
	<path
   class="st0"
   d="m 291.6,325 c 0.6,0 1.1,0 1.7,0.1 0.3,-0.7 -0.6,-0.2 -1.7,-0.1 z"
   id="path127" />
	<path
   class="st0"
   d="m 268,321.9 c 0.9,0.3 0.3,-1.9 0.9,-1.3 0.8,-2 -5.6,2.8 -0.9,1.3 z"
   id="path128" />
	<polygon
   class="st0"
   points="288.3,327.2 287.3,328.6 288.9,329 "
   id="polygon128" />
	<path
   class="st0"
   d="m 274.8,328.2 2.9,0.2 c -0.1,-0.3 0.3,-0.5 0.7,-0.7 -1.7,0.2 -3.7,0 -3.6,0.5 z"
   id="path129" />
	<path
   class="st0"
   d="m 278.4,327.7 c 0.9,0 1.8,0 2.3,-0.4 -0.5,0.1 -1.6,0.1 -2.3,0.4 z"
   id="path130" />
	<polygon
   class="st0"
   points="284.2,329.2 282.2,329.1 285,329.5 "
   id="polygon130" />
	<path
   class="st0"
   d="m 244.8,334.9 -2.7,1.7 c -0.1,0.7 0.9,0.7 1.8,0 0.6,-0.7 1.6,-1.3 0.9,-1.7 z"
   id="path131" />
	<path
   class="st0"
   d="m 255.2,336.6 c -0.9,-0.1 -1,-0.5 -1.7,-0.9 l 0.6,2.1 z"
   id="path132" />
	<path
   class="st0"
   d="m 247,339.8 c -0.1,0.7 -3.3,3.3 0.1,1.7 0,-0.8 2.6,-2.3 -0.1,-1.7 z"
   id="path133" />
	<polygon
   class="st0"
   points="207.9,361.4 205.4,358.9 207.4,361.9 "
   id="polygon133" />
	<path
   class="st0"
   d="m 191.9,398.6 c 2.3,-2.6 -1.6,-1.7 0.7,-3.9 -0.4,-1.1 -1.9,1.9 -2.2,0.8 -0.1,2.2 -1.1,3 1.5,3.1 z"
   id="path134" />
	<path
   class="st0"
   d="m 190.4,395.5 c 0,-0.4 0,-0.8 0,-1.2 -0.1,0.6 -0.1,1 0,1.2 z"
   id="path135" />
	<polygon
   class="st0"
   points="391.9,380.9 391.7,382.9 392.5,383.5 "
   id="polygon135" />
	<path
   class="st0"
   d="m 387.9,380.6 1.7,-1.7 -2.5,-0.2 c 0.3,0.4 1,1.3 0.8,1.9 z"
   id="path136" />
	<path
   class="st0"
   d="m 218.5,516.9 -0.5,0.3 c -0.2,0.7 0.2,1 0.8,1.8 z"
   id="path137" />
	<polygon
   class="st0"
   points="240.9,534 240.9,536.3 241.3,534.3 "
   id="polygon137" />
	<path
   class="st0"
   d="m 264.8,539.6 c -0.9,-0.2 -2.1,-0.1 -3.1,-0.4 2.1,0.3 2.8,3 3.1,0.4 z"
   id="path138" />
</g></g>
</svg>
