<?xml version="1.0" encoding="utf-8"?>
<!-- Generator: Adobe Illustrator 26.5.0, SVG Export Plug-In . SVG Version: 6.00 Build 0)  -->
<svg version="1.1" id="Ebene_1" xmlns="http://www.w3.org/2000/svg" xmlns:xlink="http://www.w3.org/1999/xlink" x="0px" y="0px"
	 viewBox="0 0 595.3 841.9" style="enable-background:new 0 0 595.3 841.9;" xml:space="preserve">
<style type="text/css">
	.st0{fill:#E0FF00;}
</style>
<g>
	<path class="st0" d="M429,222.2c0.7-0.6-2-1.8-2.4-2.2C426.4,221.6,429.7,222.6,429,222.2z"/>
	<polygon class="st0" points="427.5,238 426.6,237.2 428,240.5 	"/>
	<path class="st0" d="M420.6,249.6c5,1.4,1.8-4.6,4.5-5.8l1.2,0.2l-2.9-3C422.5,243.9,422.9,248.5,420.6,249.6z"/>
	<path class="st0" d="M407.7,250.3c1.9,0.6,0.7,2.2,1.4-1.1c-0.3,0-0.4,0-0.6,0C408.3,249.4,408.1,249.8,407.7,250.3z"/>
	<path class="st0" d="M408.5,249.2C409.1,247.9,406.6,249.1,408.5,249.2L408.5,249.2z"/>
	<path class="st0" d="M406.1,255.4l-0.6-2.5c-1.2-0.2-2.3,1.1-2.7,0.1C402.7,255.1,403.9,255.3,406.1,255.4z"/>
	<path class="st0" d="M408.4,258.7l-0.1-1.2C407.7,257.4,407.4,257.6,408.4,258.7z"/>
	<path class="st0" d="M407.9,255l0.3,2.6c0.8,0.2,2.2,1,0-1.1C409.4,257.3,408.4,256.3,407.9,255z"/>
	<path class="st0" d="M409.2,254.4c1.5-0.4,2.7-1.2,3.3,1.3C413.7,252.3,410.4,250.9,409.2,254.4z"/>
	<path class="st0" d="M424.7,252.8l2-0.5l-0.8-1.9C426.3,251.4,423.4,252.1,424.7,252.8z"/>
	<path class="st0" d="M398,264.1c0.9,0.6,2.8,0.9,4,1.5l-0.4-1.8C400.6,264,399.4,264.8,398,264.1z"/>
	<path class="st0" d="M402,265.5l0.5,2.7C403.6,266.8,403.1,266,402,265.5z"/>
	<polygon class="st0" points="413,261.8 411.4,257 412.7,262.4 	"/>
	<polygon class="st0" points="393.9,270.8 392.3,268.5 394.5,272.2 	"/>
	<path class="st0" d="M391.6,275.5c-1.3-1.8-3.6-0.7-4.2-2.2c-0.4,1.4,0.5,3.3,1.3,5.1C388.5,276.9,389.3,276,391.6,275.5z"/>
	<path class="st0" d="M389.7,281.1c-0.1-0.7-0.6-1.7-1-2.7C388.8,279.2,389,280,389.7,281.1z"/>
	<path class="st0" d="M400.3,271c-0.6-0.2-2.2-0.8-3.4-0.1l3,0.8C400,271.5,400.1,271.2,400.3,271z"/>
	<path class="st0" d="M399.9,271.7L399.9,271.7c-0.6,0.7-1,1.2-1.1,1.4C398.9,272.9,399.3,272.5,399.9,271.7z"/>
	<path class="st0" d="M400.4,270.8l-0.1,0.2C400.6,271.1,400.7,271.1,400.4,270.8z"/>
	<path class="st0" d="M407.9,265.1c0.8,1.9,1.1,5,4.5,4.2C411.1,267.5,409.1,268,407.9,265.1z"/>
	<path class="st0" d="M404.1,271.9l1.7-1.5c-0.7-0.4-1.9-0.6-2.3-1.6L404.1,271.9z"/>
	<polygon class="st0" points="404.4,273.3 404.1,271.9 403.5,272.4 	"/>
	<path class="st0" d="M394,279.3c0.6,1.5,0.2,2.4-0.2,3.5c1.1-0.8,2.1-1.7,2.7-2.8C395.8,279.5,394.6,278.1,394,279.3z"/>
	<path class="st0" d="M397.1,275.8l0,0.3C397.4,276,397.6,276,397.1,275.8z"/>
	<path class="st0" d="M387.9,292.8c0.2,0,0.4,0.1,0.6,0.1l-0.4-0.3L387.9,292.8z"/>
	<path class="st0" d="M397.1,280.2c1-0.5,0.6-1.4,0.1-2.3c-0.1,0.8-0.3,1.5-0.7,2.2C396.8,280.4,397.1,280.5,397.1,280.2z"/>
	<path class="st0" d="M389.3,284.6c0.8-0.1,1.5-0.3,2.2-0.6C390.5,284,388.7,284.1,389.3,284.6z"/>
	<path class="st0" d="M396.3,275.9c0-0.1,0-0.1,0-0.2C395.5,275.6,395.8,275.7,396.3,275.9z"/>
	<path class="st0" d="M396.3,275.9c0.1,0.6,0.6,1.3,0.9,2c0.1-0.6,0.1-1.2-0.1-1.9C396.9,276,396.6,275.9,396.3,275.9z"/>
	<path class="st0" d="M402.7,305.6c-2.3-1.6-3.2-5,0.4-5.3c-0.7-2.9-9.3-6.4-14.6-7.4c1,0.7,2,1.2,2.3,3.9c1.7,0.1,5.5-2.3,6.7,0.5
		c-0.2,3.2-2,1.5-4,2c3.6,0.7,2.5,5.7,7.2,7.8l-0.3-3.1C401.1,304.4,401.7,305.8,402.7,305.6z"/>
	<path class="st0" d="M390.8,289.5l0.2-0.9c-0.9,0.6-2.3,0.7-4.8,0.7c0.4,2,1.1,2.8,1.9,3.3l2.6-3.6L390.8,289.5z"/>
	<path class="st0" d="M393,285.1c2.2,2.1,2.3,4.6,5.7,5.2c1.2-2.4-1.2-2.9-1.6-4.9c-1.5,4-0.8-1.9-3.9-0.2c0-1,0.2-1.7,0.5-2.4
		c-0.7,0.5-1.5,0.9-2.3,1.2l0.2,0l0,0l0,0c0.4,0,0.6,0.1,0.4,0.2c0,0,0,0.1,0,0.1C392.5,284.6,392.8,284.8,393,285.1
		c-1.2,0.7-0.8-0.2-0.9-0.8l-0.4-0.3l0,0l-0.7,4.5C391.8,288,392.3,287,393,285.1z"/>
	<path class="st0" d="M416.9,274.5c-0.3,0-0.5-0.1-0.7-0.2C416.4,274.7,416.6,274.9,416.9,274.5z"/>
	<path class="st0" d="M414.4,275.1c-0.2-0.5-1.1-1.3-0.3-2c1.2-0.3,1.2,0.7,2.1,1.2c-0.4-0.9-0.8-2.9-3-2l0.2,0.5
		c-1.8,0.9-6.1,0.9-6.3,0.4C409.7,274.1,411.5,274.7,414.4,275.1z"/>
	<path class="st0" d="M404.3,280.6l-0.5,3.8l3.2-0.2l-1.4-0.7C407.1,282,405.2,281.4,404.3,280.6z"/>
	<polygon class="st0" points="386.4,292.3 383.9,290.3 386.8,294.4 	"/>
	<polygon class="st0" points="384.4,296.5 382.1,294.9 383,296.8 	"/>
	<path class="st0" d="M263,560.1l-1,3C262.5,562,262.8,561,263,560.1z"/>
	<path class="st0" d="M269.5,550.3l0.1-2.7C269.3,549.4,269.2,550.6,269.5,550.3z"/>
	<path class="st0" d="M326.8,392.8c-3-0.1-7.3-0.7-4.5,0.7l2.8,1.2C325.2,393.6,325.9,393.1,326.8,392.8z"/>
	<path class="st0" d="M302,467.9c0.3,0,0.7,0.1,1,0.1c-0.7-0.9-1.3-1.7-1.9-2.4C301.3,466.3,301.7,467.1,302,467.9z"/>
	<path class="st0" d="M312.1,475.4l-2.7,0.7C310.2,476.1,311.1,475.9,312.1,475.4z"/>
	<path class="st0" d="M231.4,602.8c-0.7,1.9-1.4,3.3-2.2,4.9c0.3,1.5,0.6,0.9,1-0.3C230.5,606.1,231,604.5,231.4,602.8z"/>
	<path class="st0" d="M361.4,337.2c-1.7,0.5-2.6,1.1-3.2,1.8C360.4,338.6,363.3,338.9,361.4,337.2z"/>
	<path class="st0" d="M267.3,492.6c-0.2,1.3-0.3,2.7-0.3,4C267.2,495.3,267.3,494.1,267.3,492.6z"/>
	<path class="st0" d="M356.2,342.3c0.4,0,0.6-0.2,1-0.2c0.1-1.1,0.2-2.1,1-3C356.4,339.4,355,340.1,356.2,342.3z"/>
	<path class="st0" d="M224.1,412.5c0.1-0.1,0.2-0.2,0.4-0.3C224,412.1,224,412.3,224.1,412.5z"/>
	<path class="st0" d="M255.2,369.5c0.2,0.4,0.2,1.1,0.2,1.8C255.6,371,255.6,370.4,255.2,369.5z"/>
	<path class="st0" d="M373.9,311.6C374.2,310.6,373.7,311.3,373.9,311.6L373.9,311.6z"/>
	<path class="st0" d="M386.6,313.7c0.2,0.4,0.5,0.7,1.1,1.1C387.1,314.3,386.8,314,386.6,313.7z"/>
	<path class="st0" d="M367.4,360.3L367.4,360.3C368,360.5,367.9,360.4,367.4,360.3z"/>
	<path class="st0" d="M375.8,311c-0.5,0.1-1,0.3-1.4,0.6C374.7,311.6,375.1,311.4,375.8,311z"/>
	<path class="st0" d="M374.5,310.5c0.3-0.2,0.5-0.4,0.7-0.6C374.8,309.5,374.5,309.5,374.5,310.5z"/>
	<path class="st0" d="M373.3,312.8c0.2-0.5,0.6-0.9,1.1-1.2c-0.3,0.1-0.5,0-0.5-0.1C373.8,311.8,373.6,312.2,373.3,312.8z"/>
	<path class="st0" d="M231.4,499.7c0.1-0.2,0.2-0.3,0.3-0.5C230.4,498.9,230.6,499.3,231.4,499.7z"/>
	<path class="st0" d="M340.6,430.8c0-0.1-0.1-0.1-0.1-0.2l-0.2,0.1L340.6,430.8z"/>
	<path class="st0" d="M340.7,435c-2.4-3.2-1.6-3.7-0.3-4.3l-8.1-3.6L340.7,435z"/>
	<path class="st0" d="M247.2,586.7c0.3,1.2,0.6,2.4,1,3.5c-4.7,15.8-6.4,15.6-5.8,21.8c2.5-12.8,4.8-17,7.2-21.2
		c2.4-4.2,4.7-8.4,6.2-19.6c0.3,0.8,0.6,1.6,0.9,2.3c-0.4,0.4-0.6,1.8-1,2.3c1.8,5.7,3.7-18.7,6.5-20.7c1-0.2,1.7,1.2,0.8,4.8
		l2.8-8.9c0.7-0.8,0.5,2.7-0.3,3.5l4-7.8l0,0.6c0.6-3.6,1.6-9.5,2-12.2c1.1,0.9-0.4,2.5,0,4.2l1.7-7.1c1.2,2.7-0.2,9.4-1.8,11.3
		c1.5,6.6,2,4.6,2.7,1.5c0.7-3.2,1.4-7.2,4.3-6.7l-2,5.5c2.6,6.1,4.1,0,7.9,0.2c-0.6-0.6-2.7-1.3-4.2-3.1c-1.5-1.8-2.4-4.6-1.5-8.2
		c0.8,0,1.9-1.1,2.6-5.7c1.1,4.6,2.2,1.4,3.7-1.5l1.6,5.8c1.4-4.7,0.3-7.2,0.4-11.2c2.1-2.5,4.3,0.6,6.3,2.9c2-2.5,0.6-2.9-0.7-3.8
		c-1.3-0.8-2.6-2.2-1-5.5c3.5-2.4,4.5-7.4,5.5-14c2.9-1.7,1.7,2.5,3.2,2.4c-0.3-1.7-0.7-3.4-1.1-5c0.4-0.5,1.2,0.4,1.5,0.8
		c0.2-3-3.3-3.1-2.5-6.8c-3.4-3.9,9.1-0.9,6-6.6c1.5,0,2.1,1.8,3.7,2.5c-0.9-5.6-0.3-4.5-2.7-10.1l4.1-1c-4,0.1-5.9-4.4-7.4-8.2
		c-1.8-0.2-3.3-0.4-4.2-0.4l0-4.6c0.9,0,2,1.1,3.2,2.7c-0.2-0.4-0.4-0.8-0.5-1.2c2.1-0.3,4,1.7,5.6,3.8c-1-0.1-2.1-0.2-3.1-0.3
		c1.8,2.3,3.9,4.6,6.2,5.8c-0.3-0.5-0.4-1.1-0.4-1.7c0.5,0.6,1,1.1,1.4,1.2c0.5,0.1-0.2-0.7-0.8-1.9l4.7,1.9l-1.6-1.2l5.4-2.7
		c-2.3-5.8-7-12.4-5.7-18.4c2.4,3.1,4.9,3.4,8.6,5.8c-4.7-1.1-0.7,4.9-3.1,6.9c1.2-1.1,2.8,0.3,3.2,1l-0.7-6.8c3,2,2.9,0.4,4.9,0
		c-6.5-2.8-1.9-5.9-2.6-8.8c2.1,1.1,3.9,2.8,2,4.8c6,0.3-5-7.6,0.3-7.7c-0.3,0.6-0.8,0.7,0.1,1.5c-1-2.4,2.4-4.7,3.7-2.9l-0.3,0.6
		c3-3.2,6.9-11.2,2.2-14.8c0.7,0.4,5.8,4.2,6.7,5.1l-13.1-17c4,3.3,15.8,7.4,16.4,12c1.2-0.5,2.6-1.1,2.1-3.9
		c-1,0.2-7.2-2.4-7.1-3.4c6.2,0.7,3.6,0,9.4-0.2c-1.5,0.3-7.7-4.9-6.6-6.1c0.9,0.8,6.8,4,7.2,5l-4.6-7.6c0.7,1.6,5.6,3.6,8,4
		c-1.5-0.4,2-3,1.9-4.3l-2.5,0.5c3.4-3.4-7.1-9.7-4.3-13.4c1.1,1.3,7.8,6.4,9.9,4.9c-2.9-3-14.1-14.2-14.6-19.3l2.4,0.5l-0.6-4
		c4.2,4.8,12.3,16.2,14.9,21.3c2.5-0.5,2.6,1,3.8-1.3c2.3,0.3,2.1,2.9,1.8,3.7l4.4-4.5c-4.2-2.2-1.6-6.4-5.1-8.3l0.7,8.2
		c-4.2-2.2-9.4-10.2-6.5-13.5c2.2,0,6.7,5.1,8.1,5.8c-1.1-1.3-0.5-5.1,0.7-4.9l1.2,2.9c2.8-1.1-3.3-6.6,2-6.7c0.8-0.7,6.7,0.6,4.4-1
		c-5.4-1.4-19.8-9.7-22.7-12.8c0.5-0.1,7.1-1.8,10-1.4c4.5,0.8,7.3,7.3,11.1,8c-1.1-0.7-2-2.3-2.2-2.9c1.5-0.3,3.2,2.4,3.9,0.2
		c-3.9-2.8,2.7-3.8-2.9-3c0-2.6,2.1-1.5,3.2-3.9c-3.1-0.9-7.8-7.4-7.8-10c1,0.7,2.6,1.1,3.3,1.3c2.7-3.7,5.8-4.7,8.1-8.3
		c1.2,0.3,3.4-0.8,4.8,1c-0.4-1-1.5-2.3-0.9-3.5c4.8,0-1,2.8,4.3,3.7c-2.3-1.6-1.5-4.9-2.1-7.4c-4-1.7-2.9,3.3-2.4,5.8
		c-5.1-3-8.7-9-8.8-14.2c0.6-3.8,4.1,0.7,3.7-0.3c4.3-5.1-6-10.1,0.5-12.7c4.4,0.1,6.5,3.8,9.1,4.7c-0.3,3.2-4.3,2.6-5.2,4.3
		l2.8-1.1c0.6,1.4,0.4,3.6-1,3.9c3.9,0.2,6.3-9.3,11.6-12.1c-0.6-1.4-0.9-3.4-2.6-3.6l-0.4,1.7c-3.4-0.3-2-4.8-4.3-3.7
		c-0.7-3-2.4-6.8,0.7-8.5l4,1.7c-1.1-0.6-3.2,0.4-2.5,1.8c-1-2.1,7.4-1,3.3-5.1l-3.7,0.3c-0.7-3-3.3-7.6-0.7-9.3
		c-4.3-1.1,0.1,0.8-5.2-0.1c6.2,1.7-3.8,5.8,3.2,6.8c-6-1.3-3.8,1.7-9.4,1.4c1.3,0.7,2.8,0.6,1,2.2c0.3,0.3,0.6,0.8,0.8,1.1
		c-0.1,0-0.1,0-0.2,0.1l0.2,0c0.1,0.2,0.2,0.2,0.1,0c0.8-0.1,1.7-0.1,2.4,0.1c2.2,2.6,0.3,5.7,1.1,7.6c-1.3,0.8-1.1-1.3-2.8-1.5
		l1.2,2.9c-2.8-1.5-6.3,0.4-6.3-3.3l-1.6,2.4c-2.4,0.5-4.2,2.2-3.8,4.1c-1.3,0.8,1.2,4.7-0.3,2.4l-0.6,4.8l-0.7-0.4
		c-2.6,3.6-0.2,10.5-7.7,11.9c-0.1,1.7,0,3.5-2.1,5.2l-2.6-1c-0.2,2.1-5.3,3.5-3.3,5.7c-7.3-2-6.2,7.1-9,9.3l3,1.9
		c-1.4,1.9-1.7,4.3-1.9,7.5l2.8,1.5c0.9,3.5-5.2,4.3-7,7.8c-0.9-0.9-0.1-1.5,0.9-1.8c-8.5,0.3-0.7,11.1-7.3,12.1
		c0.4,1.5-0.3,1.9-1.4,2.2c0-0.1,0-0.2,0-0.3c-0.1,0.1-0.2,0.2-0.3,0.4c-0.7,0.1-1.5,0.2-2.2,0.4c0.9,0,1.6,0,2.1-0.2
		c-0.4,0.7-0.7,2-0.6,3.4l-3.2-1.3c0,0.1-0.1,0.2-0.1,0.3c-1.7,0.4,0.9,1.6,3.4,2.4c0.2,0.8,0.4,1.6,0.9,2.4c-5.2-2-0.1,3.7-5.7,1.8
		c2,2.2-1.4,6.3,3.4,10c-0.7-0.4-1.2-0.3-0.9-0.8c-1.3,0.8-2.6,1.6-1.8,3.5l-4-1.8l3.4,5.5c-3.2,0.2-4.9,0-6.7-3.2
		c2.1,6.3-0.2,4,2.2,9.7l-2.3-1.6c-0.6,1.2,1.5,4.9-0.9,4.4c-6-0.3-8.2,11.9-16.3,15.8c7.7,3.1-4.9,1,0.3,4.6
		c-1.9-0.6-3.4-0.3-4.1-2.2c-0.4,4.3-5.6,3.3-2.5,8.3c-1.9-0.6-2-2.2-3.2-2.5c0.2,0.5,0.8,1.9-0.4,1.6c-1.2-0.3-1.1-1.3-1.5-2.3
		c-1.8,3.5,3.1,7,7.7,10.1c-3.3,0.3-3.5,1.3-1.1,4.5c-1.9-0.4-4.2-0.4-3.4-2.8c-0.9,1-6.7,5.7-2.9,8.2c-1.2-0.2-1.3,1.4-1,2
		c-1.8,2.5-2.3,2.5-3.6,5.3l1.1-0.3c4,3.8-0.4,2.9-0.7,4.7l-0.4-0.4c-2.6,0.5-2.4,1-2.3,1.7c0.1,0.6,0,1.4-2.4,1l2.3,2.7
		c2.3,3.2,1,3.3-0.7,2.8c-1.7-0.4-3.4-1.7-3.3,0.7c0.5,0.5,0.9,0.9,1.4,1.3c0.3,1.9-1.5,0.1-3.2-2.6c-1.7-2.7-3.3-6.3-3.7-6.6
		c-0.3-0.7-0.3-1.5-0.4-2.2c-2.4-4.2,1.7,5.7,1.1,8.4c-0.9-3-1.9-8.4-2.4-8.4c-0.4-1.2,0,1.8-0.1,4.9c0,3-0.5,6.1-1.1,2.8
		c0.3,2.9,0.8,5.6,0.5,8.7c-0.4,1.2-1-1-1.4-2.4c-0.5-1.3-0.7-1.8-1.2,4.5c-0.1-0.9-0.1-1.8,0-2.7c-0.6,3.7-2,7.8-3.1,15.4
		c0.9-12.4,0-8.3-1.4-3.2c-1.3,5-3.1,10.8-0.6-3.1l-1.9,4l0.6-3.1c-0.5-0.5-2.4,7.3-4.6,15.7c0.2-1.7,1.1-5,1.5-6.7c0-0.4,0-0.7,0-1
		c-0.2-2.5-0.6-0.2-6.3,17.9l2.9-11.2c-0.5,1.8-0.7,1.9-0.6,1c0.3-1.8,0.7-4.2,1.1-6.7c0.8-4.9,1.5-8.6-0.7-3.9c0.4-1,1-2.7,1.6-4.3
		c-2.2,4.5,0.1-4.3,1.4-8.9c1.3-4.8,1.6-5.8-4.9,8.5c-1.1,1.7-2.1,3.3-3.2,4.7c-0.5,2.8-1.9,6-3.4,8.9c-1.5,3-3.2,5.8-4.3,9.2
		c-0.8-0.5,3.9-13,4.6-12.3l-0.6,1.7c6.7-13.7,2.4-9.7,7-18.5c-0.1-2.6,0.7-7,1.7-10.7c0.9-3.8,2-7,2.1-9.2l-5.2,5.3l0.3-2.3
		c1.2-1.5,4-3.8,3.8-2.5c2.9-2.9-2.4,0.1-3.6,0.6c1.1-2.1,2.6-2.7,3.8-3.2c1.3-0.4,2.3-0.7,2.3-1l-0.4-0.5l-0.6,0.6
		c-2.1,0.7-4.3,1.9-4.1,0.2c1-1.5,3.2-2,3.4-2.4c0.4-0.2,0.5-0.3,0.2-0.5l0.5-1.9c-1.4,0.6-2.7,1.2-4.1,2c-2-0.5,0.2-2.4-4.4-0.1
		c1.8-1,2.8-2,3.4-3c0.6-1.1,0.8-1.8,0.8-4c0.1-3.7-0.5-7.2,0.6-8c-2.9-2.6-2.9-5.1-2.5-8.1c-0.8,0.8-5.4,1.2-4.8-1.5
		c9.4,1.1,4.1-4.8,10.9-6.9c-4.5,1.9-1-7.6-7.4-4.6c0.8-2.2,3.5-0.1,5.7-1.8c-3.6-5.3,2.5-11.7,1.3-18.2c-1.2-0.1-3.1,1-4.9-0.5
		l6.2-3.4c-0.6-1.3-7.1-1.3-2.8-3.6c-1,0.3-2.6,0.8-3-0.1c6.1-12.8-4.7-26.3,6.7-39.2c-2.4,1.7-2.6,0.6-2.7-0.8
		c-0.6,0.9-3,0-4.7,0.1l4.7-5.4c-4.6-1-0.3-5.9-4.7-6.5l0.8,1.7c-5.2-2.3-11.7,3.1-18.4,2.7c5.9,2.6-8.9,6.7-0.4,11
		c-1.4,0.9-2.2-0.8-3.7-0.3c2.9,1.1,3.5,2.4,2.1,4.8l-0.7-0.3c0.6,6.7-2.2,9.6-4.2,17.1l3.3-0.5c-0.5,1.6-1.5,2-2.3,2.7
		c5,1.9,0.3-4.6,5.9-2.8c-6.8,2.1-0.2,11.4-7.9,12.8c-0.1,2.5,3.9-0.7,3.8,1.8l-2.1,0.6l2.7,0.7c-0.5,1.6-3.1,2.4-4.8,2.5
		c0.2-0.4-0.5-1.1-0.6-1.6c-2.5,2.1,0.8,6,0,6.7l1.3-2.4c1.9,6.8-0.9,15.1,3.2,21.8l1.6-0.5c2.9,5.1-1.8,4-0.5,9.5l-0.4-0.2
		c1.6,1.1,2.3,2.6,2.1,4.1c-1.8-1.4-3.6,2.6-5.6,0.7c3.1,5.5,2.4,2.7,8.2,6.4l-2.6,0.8c2.3,1.2,3.6,1.4,4.2,4.1
		c-2.2-2.3-4,1.7-6.9-0.8c-2.9,2.9-1.5,5-0.4,6.8c1.1,2.5,1.8,4.2-2.3,6.8c7.2,2.6,4.1-7.5,5.6-5.5c2.4-1.5,5.4,2.5,4.6,4.6
		c-0.2,2-9.3,5.9-9.2,13.2c0-0.7-0.5-0.5-0.5-1.2c-1.9,3.6,2.5,3.8-0.6,8.7c4.4-1-0.3,4.4,5.3,0.9l-1.2-5c0.7,1.3,2.7,1.6,4.1,2.2
		c1.4,0.7,2.2,1.7,0.6,5.5c-1.1,0.7-2.6,0.4-3.4,0c-1.7,3,1.1,2-0.6,5.2c-2.8,2.4-3.1,0.8-3.2-1.5c-0.1-2.2-0.1-4.9-2.2-5.5
		c-2.4,3.7,4,4.5-2.1,7.2c3.8-1.5,3.6,0.2,3.1,2.7c-0.5,2.4-1.2,5.5,1.7,4.7l-3.4,3.3c0.5,0.2,2.1,0.1,2,1.5
		c-1.4,0.8-2.9,1.6-4.3,2.3c1.9,0.1,1,2.8,0,6.1c-1,3.2-2.2,6.8-1.1,7.5c-0.3-8.1,4-7.1,6.3-13.4c2.3,1.6,0.2,5.5-2.3,10.6
		c-2.4,4.9-5.2,11-3.9,14.9c-0.6-0.7,1.5-8.2,3.1-8.3c-0.5,2.9-1.5,7.3-3,11.2c1.4,5.1,3.1-6.4,5.3-7c-3.5,8.5,1.9,0.2,3.2,0.3
		l-3,5.6c-1.1,9.9,6.2-10.2,4.5-0.5l-4.1,5.8l1.3,0.8l-3.2,6.1c2.8-1.8,2.2,0.4,1.8,5.3c1.7-4.9,4.7-10.5,5-8.2
		c-1.3,5.4-2.5,4.8-1.7,7.6c-1.6,3-3.7,6.8-1.6-0.4c-0.8,1.8-1.7,3-2.5,4.7c-1.4,6.1,0.4,6,0.7,7.3c0-0.8,0-1.7,0.3-2.9
		c1.4-1,2.8-2,4.1-3.1c-0.7,3.2-1.5,4.4-2.3,5.6c0.4,0.5,1.6-1.7,2-0.5c-1.9,4.7-3.7,10.2-5.1,10.2l3-0.2c-0.7,2.6-1.5,9.3-2.3,10.5
		c-0.3,6.5,4.9-2.1,4.6,6.6c0.4-1,0.8-1.9,1.3-2.4c0.4,1.5,0.3,4.7,0.5,6.9c0.2,2.2,0.8,3.5,2.6-0.6c0.1-0.3,0.2-0.6,0.3-0.9
		l-1.3,11.3c1.8-3.9,2.1-7.2,2.7-11.3c0.6-4,1.6-8.9,4.2-14.8c3.8-9-1.4,10-1,12.1c3.2-9.7,7.9-26.6,8.9-20.7
		C248.7,585.1,248.3,584.4,247.2,586.7z M278.7,532.8c-0.4,1.9-1.2,7.3-2,4.9C276.6,530.6,277.4,532.8,278.7,532.8z M310.3,466.7
		c0.7,1-0.2,1.4-1.8,1.5C308.7,467.6,309.2,467,310.3,466.7z M370.8,322.1l0.1,0.1C368.9,322.9,369.7,322.7,370.8,322.1z
		 M373.7,320.1c-0.2-0.5-0.7-0.7-1.1-0.9c0.6,0.6,0.3,1.3-0.3,1.9C373.1,321.3,373.9,321.3,373.7,320.1z M254.4,475.9l-0.9,0.7
		C252.5,476.3,253.4,476.2,254.4,475.9z"/>
	<path class="st0" d="M311,474.5c-0.6-0.1-1.2-0.4-1.7-0.7C309.6,474.4,310.1,474.7,311,474.5z"/>
	<polygon class="st0" points="231.8,601.8 231.8,601.6 231.4,602.8 	"/>
	<path class="st0" d="M372.1,378.4c-0.8,0.3-1.5,0.3-2.2,0.2C370.6,379.1,371.4,379.2,372.1,378.4z"/>
	<path class="st0" d="M377.7,302.2l-0.3,2.3c0.4-1,1.2-0.9,1.9-1.1C378.6,303,377.4,302.8,377.7,302.2z"/>
	<path class="st0" d="M405,297.2c-0.2-0.5,0.3-0.6,0.1-1.1l-1.4-0.7C403.1,296.6,403.8,298,405,297.2z"/>
	<path class="st0" d="M388.4,306.3c2.5,1.3,2.4-0.3,2.7-1.9c0,0.1-0.1,0.2-0.1,0.2C387.7,302.2,388,304.2,388.4,306.3z"/>
	<path class="st0" d="M391.1,304.1c0.1-0.5,0.3-0.9,0.6-1.2C390.5,301.9,391.2,303.2,391.1,304.1z"/>
	<path class="st0" d="M374.2,315.5c1-0.2-2.9-2.2-1.7-2C369.8,311,373.9,319.8,374.2,315.5z"/>
	<polygon class="st0" points="397,310 393.7,308.7 395.7,310.8 	"/>
	<path class="st0" d="M388.8,318.7l2-1.5c-0.5-0.3-0.7-0.7-0.7-1.2C389.3,317.2,387.9,318.2,388.8,318.7z"/>
	<path class="st0" d="M390.2,316c0.4-0.6,0.8-1.3,0.5-1.9C390.5,314.5,390.1,315.3,390.2,316z"/>
	<polygon class="st0" points="396.3,313.3 395.3,313.6 394.2,314.9 	"/>
	<path class="st0" d="M375.3,340.1l-0.5,2.7c0.9,0.8,1.9,0.6,2-0.4C376.4,341.4,376.5,340.3,375.3,340.1z"/>
	<path class="st0" d="M387.5,338.4c-1,0.2-1.7-0.1-2.9-0.4l3.7,2.3L387.5,338.4z"/>
	<path class="st0" d="M384.5,345.3c0.9,0.8,1.1,5,2.5,2C386.1,346.5,386.6,343.8,384.5,345.3z"/>
	<polygon class="st0" points="359.8,375.7 360.1,375.1 353.9,371.5 	"/>
	<path class="st0" d="M356.7,413.7c3.1-1.7-3.4-2.9-0.1-4.2c-1.1-1.5-2.7,1-3.5-0.4C353.6,411.7,352.2,412,356.7,413.7z"/>
	<path class="st0" d="M353,409.2c-0.1-0.4-0.2-0.8-0.4-1.4C352.7,408.5,352.8,408.9,353,409.2z"/>
	<polygon class="st0" points="259.1,362.4 260.6,360.4 258.2,361.7 	"/>
	<path class="st0" d="M253.8,358.6l4.6-0.4l-4.1-1.2C254.4,357.4,254.8,358.2,253.8,358.6z"/>
	<path class="st0" d="M286.5,537.6l-0.2-1.7c-0.7-1.1-1.2-0.5-2.1,0.7C284.9,537,285.7,537.3,286.5,537.6z"/>
	<polygon class="st0" points="260.2,572.9 260.6,572.4 260.5,564.9 	"/>
	<path class="st0" d="M236,621c0.9-1,2.5-5.3,3.3-6.4C236.8,620,238.8,607,236,621z"/>
</g>
<g>
	<path class="st0" d="M388.5,376.7c0.5,1,1.5-0.1,1.9-0.1C389,375.2,388.2,377,388.5,376.7z"/>
	<polygon class="st0" points="374.8,364.1 375.5,363.9 372.6,362.9 	"/>
	<path class="st0" d="M362.9,352.1c-0.5,2.9,4.7,3.9,6.3,6.6l0,0.7l2.4-0.5C368.6,356.6,364.3,354.3,362.9,352.1z"/>
	<path class="st0" d="M358.9,342.1c-0.1,1.1-2.1-0.6,1.6,1.6c-0.1-0.2-0.1-0.3-0.2-0.4C360,343.1,359.6,342.8,358.9,342.1z"/>
	<path class="st0" d="M360.3,343.3C361.8,344.4,359.9,341.9,360.3,343.3L360.3,343.3z"/>
	<path class="st0" d="M353,338.8l2.6,0.6c-0.1-0.8-1.9-2-1-2C352.1,336.5,352.3,337.3,353,338.8z"/>
	<path class="st0" d="M350,339.1l1.3,0.4C351.2,339.2,351,338.9,350,339.1z"/>
	<path class="st0" d="M354,340.3l-2.7-0.8c0.1,0.5-0.3,1.2,1.2,0.4C351.9,340.4,352.7,340.1,354,340.3z"/>
	<path class="st0" d="M355,341.4c0.9,1.1,2,2.5-0.4,1.8C358.5,345.7,359,343.8,355,341.4z"/>
	<path class="st0" d="M360.5,353.5c0.3,0.5,0.6,1.1,0.8,1.7l1.6,0.4C362.2,355.3,361,352.8,360.5,353.5z"/>
	<path class="st0" d="M340.3,330.2c-0.4,0.4,0.1,1.6,0,2.3l1.9,0.3C341.5,332,340.1,331,340.3,330.2z"/>
	<path class="st0" d="M340.3,332.5l-2.8-0.4C339.6,333.3,340.1,333.1,340.3,332.5z"/>
	<polygon class="st0" points="348.2,341.3 352.9,342 347.5,340.9 	"/>
	<polygon class="st0" points="330.7,326 332.6,325.4 329.4,326.1 	"/>
	<path class="st0" d="M324.2,323.8c1.4-0.7-1-2.1,0.4-2.3c-1.9-0.4-3.7,0-5.3,0.4C320.8,321.9,322.4,322.4,324.2,323.8z"/>
	<path class="st0" d="M316.6,322.3c0.8,0,1.7-0.2,2.6-0.5C318.4,321.9,317.5,322,316.6,322.3z"/>
	<path class="st0" d="M333.4,330.1c-0.1-0.4-0.1-1.3-1.4-2.2l0.4,1.8C332.8,329.8,333.1,329.9,333.4,330.1z"/>
	<path class="st0" d="M332.5,329.7L332.5,329.7c-1.1-0.5-1.8-0.8-2.1-1C330.6,328.9,331.3,329.2,332.5,329.7z"/>
	<path class="st0" d="M333.7,330.2l-0.2-0.1C333.5,330.2,333.5,330.3,333.7,330.2z"/>
	<path class="st0" d="M343,336.6c-1.8,0-5-0.6-2.9,1.9C341.6,338.1,340.3,336.7,343,336.6z"/>
	<path class="st0" d="M334.1,332.3c0.8,0.4,1.6,1,2.4,1.5c0.1-0.4-0.1-1.1,0.8-1.2C336.2,332.6,335.2,332.4,334.1,332.3z"/>
	<polygon class="st0" points="332.7,332.3 334.1,332.3 333.2,331.9 	"/>
	<path class="st0" d="M321,325c-1.4,0.3-2.7,0-4.2-0.3c1.5,0.7,3,1.3,4.6,1.8C321.7,326,322.7,325.4,321,325z"/>
	<path class="st0" d="M326.6,327.2l-0.3,0C326.4,327.4,326.5,327.5,326.6,327.2z"/>
	<polygon class="st0" points="302.3,321.7 302.5,322 302.6,321.8 	"/>
	<path class="st0" d="M321.6,326.8c1.1,0.6,1.9,0.5,2.7,0.2c-0.9-0.1-1.9-0.3-2.9-0.5C321.2,326.6,321.2,326.7,321.6,326.8z"/>
	<path class="st0" d="M312.4,322l1.9,1.3C313.8,322.6,312.7,321.6,312.4,322z"/>
	<path class="st0" d="M326.1,326.7l0.2,0C326,326.2,326,326.4,326.1,326.7z"/>
	<path class="st0" d="M326.1,326.7c-0.7,0-1.2,0.1-1.8,0.3c0.7,0.1,1.4,0.2,2.1,0.2C326.2,327.1,326.1,326.9,326.1,326.7z"/>
	<path class="st0" d="M296.8,330.8c0.3-1.3,3.5-2.6,5.8-0.5c2.6-0.6,1.8-5.4-0.2-8.3c-0.2,0.6-0.2,1-3.1,1.7
		c0.9,0.7,5.7,2.6,3.3,3.5c-3.6,0.1-2.8-0.8-4.5-1.8c1.3,1.8-4.7,2.1-4.1,4.7l3.1-0.6C297.2,329.9,296,330.4,296.8,330.8z"/>
	<path class="st0" d="M307.7,323.1l1.2,0c-1.2-0.5-2.1-1.2-3.6-2.6c-2,0.3-2.5,0.8-2.7,1.2l5.5,1.2L307.7,323.1z"/>
	<path class="st0" d="M313.9,324.1c-1.2,1.2-4,1.4-2.7,3.3c3.2,0.6,2.5-0.7,4.6-0.8c-5.3-1.1,1.7-0.4-1.9-2.3c1.1,0,2,0.2,2.9,0.4
		c-0.9-0.4-1.8-0.9-2.6-1.4l0.1,0.1l0,0l0,0c0.2,0.2,0.2,0.4,0,0.2l-0.1,0C314.2,323.8,314,324,313.9,324.1
		c-1.4-0.7-0.1-0.5,0.4-0.5c0-0.1,0.1-0.1,0.1-0.2l0,0c-1.8-0.3-3.7-0.2-5.5-0.3C309.9,323.6,311.4,323.7,313.9,324.1z"/>
	<path class="st0" d="M336.2,340.2c-0.1-0.2,0-0.3,0-0.4C335.8,339.8,335.6,339.9,336.2,340.2z"/>
	<path class="st0" d="M334.7,338.5c0.4,0,1-0.4,2,0.3c0.7,0.9-0.3,0.6-0.5,1.1c0.8,0,2.8,0.2,1-1.5l-0.4,0c-1.6-1.4-3.3-4.3-2.9-4.4
		C333.9,335.5,334,336.6,334.7,338.5z"/>
	<path class="st0" d="M324.6,331.1c-1.4-0.3-2.9-0.5-4.4-0.6l1.7,1.8l0.1-0.8C324.3,332.6,324.1,331.6,324.6,331.1z"/>
	<path class="st0" d="M301.8,320.9l0.8-1.5c-1,0.6-2,1.3-2.9,1.9L301.8,320.9z"/>
	<polygon class="st0" points="295.9,320.5 296.2,319.2 294.6,319.9 	"/>
	<path class="st0" d="M237.9,535l1.2,0.2C238.6,535.1,238.2,535,237.9,535z"/>
	<path class="st0" d="M230.7,530.8l-0.5,0.5C230.7,531.2,231,531,230.7,530.8z"/>
	<path class="st0" d="M176.7,388.3c-2,1.2-4.9,2.3-3.3,2.8l1.7,0.1C175.4,389.8,176,388.9,176.7,388.3z"/>
	<path class="st0" d="M180.5,481.9l0.2-0.6c-0.6-0.2-1.2-0.5-1.7-0.7C179.4,481,179.9,481.5,180.5,481.9z"/>
	<path class="st0" d="M186.8,480.8l0,2.4C186.9,482.6,187,481.8,186.8,480.8z"/>
	<path class="st0" d="M281.7,545.1c0.5-0.5,0.9-0.9,1.4-1.5C281,543.5,281.9,544.3,281.7,545.1z"/>
	<path class="st0" d="M236.8,331.1c-1.8,0.1-3.1,0.4-4.2,0.8C234.8,331.9,236.9,332.4,236.8,331.1z"/>
	<path class="st0" d="M227.1,547.7c0.9,0.1,1.3,0,1.5-0.3C227.7,547.2,227.2,547.3,227.1,547.7z"/>
	<path class="st0" d="M228.3,334.2c0.3,0,0.6-0.1,0.9-0.1c1-0.8,1.9-1.7,3.4-2.2C230.9,331.9,229.3,332.5,228.3,334.2z"/>
	<path class="st0" d="M390.3,445.5c0.1-0.1,0.1-0.3,0.2-0.4C390.3,445.1,390.3,445.3,390.3,445.5z"/>
	<path class="st0" d="M394.9,392.6c0.3,0.5,0.7,1.3,1,2C395.9,394.2,395.6,393.6,394.9,392.6z"/>
	<path class="st0" d="M272,320.3C273.3,320,272.2,320.1,272,320.3L272,320.3z"/>
	<path class="st0" d="M278.5,325.6c-0.2,0.2-0.4,0.4-0.4,0.8C278.1,326,278.3,325.7,278.5,325.6z"/>
	<path class="st0" d="M222.8,348.6C222.8,348.6,222.8,348.6,222.8,348.6C223.2,348.7,223.1,348.7,222.8,348.6z"/>
	<path class="st0" d="M274,320.7c-0.5-0.1-1-0.2-1.7-0.3C272.6,320.5,273.1,320.6,274,320.7z"/>
	<path class="st0" d="M273.6,320c0.4,0,0.8,0,1.1,0C274.9,319.8,274.7,319.7,273.6,320z"/>
	<path class="st0" d="M270.3,320.5c0.7-0.1,1.4-0.1,2.1-0.1c-0.3-0.1-0.4-0.1-0.3-0.2C271.6,320.3,271.1,320.4,270.3,320.5z"/>
	<path class="st0" d="M355.1,525.5c0.1,0,0.2,0,0.3,0C355.8,524.3,355.5,524.7,355.1,525.5z"/>
	<polygon class="st0" points="181.9,422.2 181.8,422 181.8,422.2 	"/>
	<path class="st0" d="M182.3,426.2c-1.6-1.9-1.2-2.9-0.6-4l-4.5,0.5L182.3,426.2z"/>
	<path class="st0" d="M256.6,542l-2.2-2c3.8-1.3,5.7,0.1,3.9-2.4c-0.8,2.2-3.4,1.8-5.9,1c-2.4-0.8-4.9-1.6-6,0.5l-1.3-1.6
		c0.5,0.2,0.6,0,1.1,0.2c-2.3-3.3-3.8,2.2-7.6-0.5c-1.3-1-1.9-2.1-0.7-2.2l-3.7-0.5c-0.9-0.6-0.2-1.1,0.6-0.6
		c-1.6-0.7-3.2-1.7-4.8-2.5l0.1-0.1c-1,0.2-3.2,0.3-4.2,0.2c-0.8-1.3,0.9,0,0.9-0.7c-1.1-0.2-2.2-0.4-3.2-0.7
		c-0.3-1.7,2.4-1.2,4.1-0.1c0.3-5.4-2.8-0.3-5.9-6.2l2.5,1.2c0.2-3.2-2-3.8-3.3-6.9c-0.1,1.1,2.2,7.1-1,6c-0.5-0.9-1.3-1.7-3.3-2.1
		c1.1-1.3-0.4-2.1-2-3.5l1.6-1.5c-2.1-1.1-2.7-0.1-4.4-0.3c-1.7-1.9-0.8-3.5-0.1-4.9c-2.3-3.3-0.2,4-3.6,0.7c-1.5-3.2-4-4.2-7.4-6.8
		c-0.8-2.4,1.3-0.5,1.4-1.6l-2.7-0.7c-0.3-0.5,0.3-0.6,0.6-0.7c-1.6-1.1-1.9,1.2-4.1-0.8c-1.2,0.4-1.4-1.3-1.6-3.3
		c-0.2-2-0.5-4.3-2.6-5.2c0.1-1.1,1.4-0.3,2-0.9c-4-3.3-3.3-2.9-7.1-5.5l0-3.7c-0.6,3-3.7,0.8-6.4-1.3c-0.4,1.1-0.7,2.1-0.8,2.8
		c-1-1.3-2-2.6-2.8-4c0.2-0.7,1-0.5,2.2,0c-0.3-0.2-0.5-0.5-0.8-0.6c0.3-1.9,1.8-1.5,3.3-0.8c-0.3,0.7-0.5,1.4-0.8,2.1
		c1.7,0.6,3.6,1,4.7,0.3c-0.4-0.2-0.8-0.6-1.2-1.1c0.5,0.1,0.8,0.2,1,0c0.2-0.2-0.5-0.5-1.3-1l2-1.8l-1,0.1l-0.3-6
		c-3.8-3.1-7.9-6-10.3-12.7c2,1.4,3-0.1,5.2-0.3c-2,2.2,2,4.9,2.2,8.3c-0.1-1.8,1-1.6,1.4-1.3l-3.3-5.5c1.8-0.2,1-1.5,1.6-3.2
		c-3.3,1.7-2.8-4.2-4.2-6.6c1.2-0.2,2.4,0.3,2.5,3.3c2.3-3.5-4.7-4-2.5-7.5c0,0.7-0.1,1.2,0.5,1.4c-1.1-1.7-0.3-6,0.7-5l0,0.7
		c0-4.9,0.9-14.9-2.1-16.1c0.4,0,3.4,1.1,4,1.5c-2.9-3.3-5.6-6.8-8.3-10.6c2.4,1.3,8.9-0.4,9.6,3.9c0.6-1.1,1.1-2.4,0.9-5
		c-0.6,0.7-4.1,1.1-4.1,0c3.6-2.3,2.1-1.7,5.4-4.6c-0.9,1-4.4-1.4-3.7-3.2c0.5,0.5,3.8,1,4,1.8c-0.9-1.9-1.7-3.8-2.3-5.7
		c0.2,1.4,3.1,1.3,4.5,0.7c-0.9,0.2,1.5-3.7,1.6-5l-1.6,1.5c2.4-4.7-3-7.1-0.4-12c0.4,1,3.8,3.7,5.4,1.5c-1.4-2-5.8-9.6-4.3-14.8
		l1.5-0.2c0.3-1.3,0.6-2.7,1.1-4c0.9,3.8,2.9,12.9,3.3,16.9c1.8-1.2,1.5,0.2,2.9-2.3c1.5-0.3,0.6,2.2,0.2,2.9l4.1-5.3
		c-1.1-0.5-0.9-1.9-0.6-3.4c0.3-1.3,0.8-2.7-0.1-3.2c-1,2.4-1.5,5-2.1,7.5c-2.1-0.9-3.5-7.5,0.1-11.2c1.5-0.4,2.8,3.3,3.5,3.7
		c-0.3-1,1.6-4.6,2.3-4.6l-0.3,2.4c2.3-1.6,0.3-5.6,4.3-6.4c0.9-0.7,4.5-0.3,3.6-1.4c-3.1-0.6-9.5-6-10-8.4c0.4-0.2,6.3-2.9,8.3-2.7
		c2.9,0.3,1.2,5.6,3.7,5.9c-0.4-0.5-0.1-1.8,0-2.3c1.3-0.4,1,1.8,2.7-0.1c-1.2-2.1,4.1-3.3-0.4-2.3c1.6-2.2,2.3-1.5,4.7-3.3
		c-1.8-0.7-0.9-5.8,1-7.9c0.2,0.6,1.2,0.9,1.6,1c4.5-3.1,7.9-3.2,12.2-5.7c0.7,0.3,3.1-0.2,2.6,1.2c0.5-0.7,0.7-1.7,2.1-2.3
		c3.6,0.7-3,1.6,0.1,3c-0.4-1.3,2.8-3.3,4.5-5c-1.4-1.7-4.9,1.7-6.5,3.3c-1.3-2.6,0.9-7,5.6-10.5c3.8-2.3,2.4,1.1,3,0.4
		c7.9-1.8,5.1-7.4,12.5-6.8c3.1,1.3,0.9,3.6,1.8,4.8c-3.2,1.3-5.5,0-7.8,0.9l3,0c-0.9,0.9-3,2.1-4.3,2c2.5,0.7,13.1-3.4,19.4-2.4
		c1-0.7,2.8-1.6,1.8-2.3l-1.9,0.5c-2-1.3,3.4-2.5,0.9-2.9c2.5-1.2,5.5-3.6,9.4-2.7l0.8,2.1c-0.1-0.6-2.5-1.3-3.6-0.6
		c1.6-1,5.9,2.8,7.5,0l-2.7-1.5c2.7-1.1,6.2-3.6,9.7-2.5c-1.5-2.2-0.8,0.2-3.2-2.5c2.1,3.1-9,0-5.5,3.2c-2.6-2.8-4.4-1.3-7.9-3.4
		c0.2,0.7,1.3,1.2-1.7,1.2c-0.1,0.2-0.4,0.5-0.6,0.7c-0.1,0-0.1,0-0.2,0l0.2,0.1c-0.1,0.1-0.1,0.1,0.1,0c0.7,0.2,1.3,0.5,1.6,0.9
		c-1.3,1.8-5.8,2.2-7.3,3.2c-1.7-0.1,0.6-0.9-0.4-1.5c-0.7,0.5-1.4,1-2.1,1.6c-0.5-1.5-5-1.6-1.1-3.4l-3.7,0.7c-2.3-0.4-5.4-0.2-7,1
		c-1.8,0.2-3.7,3-2.6,1.4l-5.2,2.7l-0.2-0.4c-2.8,0.7-5.2,2.6-7.9,4c-2.6,1.5-5.5,2.6-9,3c-1.5,1.3-3,2.7-6,3.9l-1.3-0.9
		c-1.9,1.6-7,3.1-7.1,4.8c-4.5-1.6-10.2,6.8-13.8,9.3l1.1,1.4c-2.3,2-3.8,4.5-5.9,7.7l1.3,0.9c-1.3,3-6.1,5.4-9.1,9.6
		c-0.3-0.6,0.6-1.5,1.5-2c-3.3,1.3-4.7,4.3-5.7,7.4c-1,3.1-2,6-4.3,7.8c-0.1,1.5-0.7,2.3-1.5,2.9c0.1-0.1,0.1-0.2,0.1-0.3
		c-0.1,0.1-0.2,0.3-0.3,0.5c-0.5,0.4-1.1,0.8-1.6,1.3c0.6-0.3,1.1-0.7,1.5-1.1c-0.4,1-1,2.5-1.3,4l-1.8-0.1c0,0.1-0.1,0.2-0.1,0.3
		c-1.3,1.1,0.2,1.4,1.7,1.2c-0.1,0.8,0,1.6,0.1,2.3c-3,0.1-0.6,4.1-3.9,4.6c0.5,0.7,0,2.6-0.2,4.6c-0.1,2,0,4,1.4,4.8
		c-0.4-0.1-0.7,0.3-0.5-0.5c-0.8,1.5-1.6,3.1-1.2,4.7l-2.3,0.2c0.6,1.4,1.2,2.8,2,4.3c-1.7,1.9-2.6,2.7-3.8,0.2
		c1.5,5.8,0.1,4.6,1.9,9.4l-1.4-0.4c-0.1,1.7,1.5,4.4,0.3,5.3c-3.3,3.5-1.1,18.1-2,27.8c3.7-2.5-1.1,4.7,2.2,4.5
		c-0.8,0.7-1.1,2.2-2.2,0.8c2,4.6-0.1,7.7,3.6,10.2c-0.8,0.8-1.7-0.6-2.1,0c0.3,0.3,1.3,1.3,0.9,1.9c-0.4,0.7-1-0.5-1.6-1.1
		c1.7,4.9,4.7,4.4,7.4,3.8c-0.5,2.8,0.1,3.9,2.5,4.9c-0.5,1.1-0.8,2.8-2.3,0.1c0.6,1.6,2.9,10.3,5.1,9.4c-0.2,0.7,1,2.2,1.5,2.4
		c1.8,3.4,1.7,3.8,3.8,7l-0.2-1.1c3-0.1,2.1,2.3,4.1,4.6l-0.3,0.1c2.5,6.8,2.3,2,4.8,8.7l1.1-1.3c3.2-1.8,2.3,5.9,6,8.1l-0.2-1.7
		c2.2,0.8,0.8,7.7,2.2,9.7c0.1,0.6-0.9-0.2-1.6-0.5c2.9,5.7,2.1-1.1,5.6,1.5c-0.2,1.4-2.8,1.6-0.7,3.7c0.7,1.7,9.1,2.4,11.1,6.4
		c-0.2-1.2-0.4-2.4,1.6-1.9c2.7,1.3,5.2,7.5,9.1,6.3c0.2,0.4,0.2,0.7,0.2,0.9c2.5,0.4,7.4,2.3,9.3,1.5c-0.2,6.2,14.4,2.7,12.7,7.4
		l7.1,1.7l-0.3,0.5c4.4,1.5,6.4,0.3,8.2-0.6c1,0.5,0.1,0.9,0,1.2c6.4,2.4,7.3,1.9,13.1-0.3l0.5,1.8c1.5-0.7,9.8,3,16.4,0.6
		c0,0.2-0.2,0.6-0.7,0.9c3.6-1.5,8.2-0.6,12.2-0.7c4-0.1,7.4-0.7,7.9-4.1c1.5-0.8,2.9-1.9,4.3-2.9c-6.1,1.4,0.1-2.9-2.6-3.2
		c2.1-1.1,6.5-0.1,3.8,1.2l-0.5-0.2c-0.1,3.5,7.8-1.2,8.3,0.8c11.6-4.6,23-9.4,32.6-16.5l-2.6-1.2c1.1-0.8,2.1-1.7,3.2-2.5
		c1.2-0.2,2.4,0.6,0.1,2.4c2.1,0.1,3-4.2,2.6-4.6c5-3,0.3,3.7,1.6,2.6l1.7-1.7l-0.6,0.1c0.7-2.1,0.3-2.8,2.7-5.3
		c1.9-1.2,1.9,0.3,2.6-0.3c0.1,0.1,0.4,0,1-0.9l3.8-3.6l-2.9,0.2c0.8-2.3,3.4-3.5,0-3.2c2.5-0.1,5.6-3.8,8.5-7.4
		c2.7-3.8,4.7-7.8,5.7-8.4c0.6-3.4,1.7-6.3,3.7-9.6c-0.8,0.7-3.1,0.2-1.4-2.6c3.9,3.1,4.3-4.7,8.3-6.1c-1.5,0.8-0.7-1.6-0.2-3.7
		c0.5-2.2,0.6-4.3-1.4-2.9c1.1-2.6,1.7,0.4,3.4-1.4c0.2-6.9,4.9-14.1,5-22.7c-0.6-0.2-1.7,1.1-2.4-0.8l3.4-4.1
		c-0.2-1.7-3.3-1.7-1.2-4.6c-0.5,0.4-1.3,1-1.5-0.1c1.6-8.1,0.4-16.5-1.5-24.5c-1-4-1.8-8.1-2.9-12.1c-0.9-4.1-1.5-8.3-2-12.6
		c-0.2,2.5-0.9,1.2-1.6-0.4c0.2,1.1-1.4,0.6-2.1,1.1c-0.2-2.4-0.3-4.9-0.7-7.3c-2.7,0-3.8-6.4-6-5.9l1.4,1.7
		c-3.6-1.1-3.2,6.3-6.4,7.4c4.4,1.3-0.8,8.9,5.2,11.6c-0.2,1.2-1.4-0.4-1.9,0.4c1.9,0.6,2.6,1.9,2.8,4.8l-0.4-0.2
		c2.8,7.2,2,10.9,2.5,19.3l1.6-0.9c0,1.9-0.5,2.3-0.8,3.2c2.7,1.8-0.4-5.2,2.5-3.6c-1.5,1.5-1.2,4.7-0.9,7.8
		c0.2,3.1-0.1,6.2-1.9,7.1c0,2.8,1.9-0.8,1.9,2l-1,0.7l1.3,0.7c-0.2,1.9-1.7,2.7-2.5,2.7c0.1-0.4-0.1-1.3-0.2-1.7
		c-1.4,2.3-0.1,6.6-0.6,7.4l0.9-2.6c0.6,7.8-2.9,16.6-3,24.3l0.9-0.3c-0.4,6-2.4,4-4,10.2l-0.1-0.3c0.3,1.5-0.1,3.2-1,4.7
		c-0.1-1.8-2.9,1.9-2.9-0.4c-1.4,6.2-0.2,3.3,0.3,8.3l-1.6,0.2c0.3,1.8,0.7,2.2-0.7,5.1c0.5-2.8-2.7,0.6-2.4-2.6
		c-5.6,4-3.5,9.6-8.5,9.5c0.9,4.7,5.1-3.3,4.6-1.4c1.8-0.4,0.6,3.7-1,5.1c-1.3,1.8-5.9-0.2-9.4,3.6c0.4-0.4,0.2-0.6,0.6-0.9
		c-2,0.7-1.7,3.8-4.6,4.2c0.4,2.5-2.4,1.9-0.9,4.3l3.3-3.7c-1.6,2.3-1.5,6.5-6,8.4c-0.1-0.7,0.5-2.2,1-3.1c-1.6,0.2-1.6,2.2-3.2,2.3
		c-1.3-2.3,4.1-4.3,5-7.8c-1.8,0-2.9,5.1-3.7,1.9c0.4,2.1-0.6,2.9-1.9,3.7c-1.3,0.7-2.9,1.3-3.5,3.5l-0.8-1.5
		c-0.3,0.5-0.8,1.8-1.7,2.4l0.3-2.8c-1.3,3.1-5.3,1.9-7.1,3.9c4.9-2.8,2.2,1.1,4.9,0.9c-5.1,5.5-5.8-1.7-12.1,2.8
		c0.8-0.7,3.9-1,2.8,0.5c-1.4,0.5-3.5,0.7-4.7,0.2c-4.6,2.4,1.4,1.2-0.2,3c-2.5-1.1-2,1.8-4,3.3l-0.6-1.6c-5.9,1.1-0.3,3.9-5.9,4.4
		l1.5-2.9l-2.5,1.4l0-2c-2.5,2.2-3.5,2.4-6.5,2.4c1,1,0.4,3.1-2.3,3.7c-2-0.6,0.7-1.8-3-0.8c0.6-1.2,1.3-2.7,3.2-1.5
		c0-0.6,0.6-1.2,0.6-1.8c-2.1-0.7-4.7,0.7-6.1,1c0.5,0,1.1-0.1,1.5,0.1c-1.6,1.2-3.3,2.2-5,3.2c-0.9-0.5-0.3-1.1,0.3-1.7
		c-1.1,0.3-1.7,1.2-3.3,1.5c0.3-1.4,0-2.8,2.2-3.7l-4.9,2.1c-0.4-0.5-2.7-1.4-2.1-1.9c-2.8-0.8-6.8,2.8-10.6,1.7
		c-0.2,0.2-0.6,0.5-1.4,0.6c-3.5-0.7-6.4-2.3-10.8-1.3l-1.9-2.8c-3.3,0,2.6,3.6-3,3.6c-4,0.1-1-2.3-2.1-3.3c-2.1,0.7-6.1,2.2-9-0.7
		C254.7,541.3,255.4,541.9,256.6,542z M220.1,524.3c0.9,0.2,2.8,0.3,2.6,1.5C220.8,526.7,220.8,525.5,220.1,524.3z M181.6,474.8
		c0.7,0.4,0.7,1.4,0.5,2.6C181.7,476.7,181.4,475.9,181.6,474.8z M258.6,323.9l-0.1,0.1C256.4,323.8,257.2,323.9,258.6,323.9z
		 M262.9,323.8c0.4-0.3,0.3-0.5,0.1-0.7c-0.2,0.5-1.1,0.7-2.2,0.8C261.2,324.2,261.8,324.4,262.9,323.8z M372,525.3l-0.9,0.3
		C372,524,372,524.6,372,525.3z"/>
	<path class="st0" d="M186.1,480.9c-0.2,0.3-0.4,0.5-0.7,0.7C185.8,481.7,186.1,481.6,186.1,480.9z"/>
	<path class="st0" d="M281.4,545.3l0.1,0c0.1-0.1,0.1-0.2,0.1-0.3L281.4,545.3z"/>
	<path class="st0" d="M214.9,363.2c-0.7,0.3-1.3,0.4-1.7,0.3C213.4,363.8,213.9,363.9,214.9,363.2z"/>
	<path class="st0" d="M285.1,318.7l-2.7,0.5c1.3-0.1,1.8,0.3,2.5,0.5C284.7,319.3,284.2,318.7,285.1,318.7z"/>
	<path class="st0" d="M306.9,331.1c0.4-0.1,0.8,0.1,1.2,0l0.1-0.8C306.6,330.1,305.4,330.5,306.9,331.1z"/>
	<path class="st0" d="M287.5,324.3c0.2,1.5,1.8,0.8,3.7,0.8c-0.1,0-0.2,0-0.3,0C291.5,323.1,289.5,323.5,287.5,324.3z"/>
	<path class="st0" d="M291.6,325c0.6,0,1.1,0,1.7,0.1C293.6,324.4,292.7,324.9,291.6,325z"/>
	<path class="st0" d="M268,321.9c0.9,0.3,0.3-1.9,0.9-1.3C269.7,318.6,263.3,323.4,268,321.9z"/>
	<polygon class="st0" points="288.9,329 288.3,327.2 287.3,328.6 	"/>
	<path class="st0" d="M274.8,328.2l2.9,0.2c-0.1-0.3,0.3-0.5,0.7-0.7C276.7,327.9,274.7,327.7,274.8,328.2z"/>
	<path class="st0" d="M278.4,327.7c0.9,0,1.8,0,2.3-0.4C280.2,327.4,279.1,327.4,278.4,327.7z"/>
	<polygon class="st0" points="285,329.5 284.2,329.2 282.2,329.1 	"/>
	<path class="st0" d="M244.8,334.9l-2.7,1.7c-0.1,0.7,0.9,0.7,1.8,0C244.5,335.9,245.5,335.3,244.8,334.9z"/>
	<path class="st0" d="M255.2,336.6c-0.9-0.1-1-0.5-1.7-0.9l0.6,2.1L255.2,336.6z"/>
	<path class="st0" d="M247,339.8c-0.1,0.7-3.3,3.3,0.1,1.7C247.1,340.7,249.7,339.2,247,339.8z"/>
	<polygon class="st0" points="207.4,361.9 207.9,361.4 205.4,358.9 	"/>
	<path class="st0" d="M191.9,398.6c2.3-2.6-1.6-1.7,0.7-3.9c-0.4-1.1-1.9,1.9-2.2,0.8C190.3,397.7,189.3,398.5,191.9,398.6z"/>
	<path class="st0" d="M190.4,395.5c0-0.4,0-0.8,0-1.2C190.3,394.9,190.3,395.3,190.4,395.5z"/>
	<polygon class="st0" points="392.5,383.5 391.9,380.9 391.7,382.9 	"/>
	<path class="st0" d="M387.9,380.6l1.7-1.7l-2.5-0.2C387.4,379.1,388.1,380,387.9,380.6z"/>
	<path class="st0" d="M218.5,516.9l-0.5,0.3c-0.2,0.7,0.2,1,0.8,1.8L218.5,516.9z"/>
	<polygon class="st0" points="241.3,534.3 240.9,534 240.9,536.3 	"/>
	<path class="st0" d="M264.8,539.6c-0.9-0.2-2.1-0.1-3.1-0.4C263.8,539.5,264.5,542.2,264.8,539.6z"/>
</g>
</svg>
