<svg width="2630" height="1010" viewBox="0 0 2630 1010" fill="none" xmlns="http://www.w3.org/2000/svg">
<path d="M462 345.24C462 281.727 513.487 230.24 577 230.24H897C960.513 230.24 1012 281.727 1012 345.24V665.24C1012 728.753 960.513 780.24 897 780.24H577C513.487 780.24 462 728.753 462 665.24V345.24Z" fill="white"/>
<path d="M614.247 558.446L625.997 594.807C626.399 596.053 628.163 596.053 628.566 594.807L640.315 558.446C646.462 539.375 661.416 524.42 680.487 518.274L716.848 506.525C718.095 506.122 718.095 504.358 716.848 503.956L680.487 492.206C661.416 486.06 646.462 471.105 640.315 452.034L628.566 415.673C628.163 414.427 626.399 414.427 625.997 415.673L614.247 452.034C608.101 471.105 593.146 486.06 574.075 492.206L537.714 503.956C536.468 504.358 536.468 506.122 537.714 506.525L574.075 518.274C593.146 524.42 608.073 539.375 614.247 558.446Z" fill="#09080A"/>
<path d="M833.685 558.446L845.434 594.807C845.837 596.053 847.6 596.053 848.003 594.807L859.753 558.446C865.899 539.375 880.854 524.42 899.924 518.274L936.286 506.525C937.532 506.122 937.532 504.358 936.286 503.956L899.924 492.206C880.854 486.06 865.899 471.105 859.753 452.034L848.003 415.673C847.6 414.427 845.837 414.427 845.434 415.673L833.685 452.034C827.538 471.105 812.584 486.06 793.513 492.206L757.152 503.956C755.905 504.358 755.905 506.122 757.152 506.525L793.513 518.274C812.584 524.42 827.511 539.375 833.685 558.446Z" fill="#09080A"/>
<path d="M1192 363.493H1388.94V404.346H1241.03V485.639H1351.86V526.492H1241.03V652.352H1192V363.493Z" fill="white"/>
<path d="M1431.34 355.24H1477.9V652.352H1431.34V355.24Z" fill="white"/>
<path d="M1624.21 655.24C1604.44 655.24 1586.72 650.976 1571.06 642.448C1555.41 633.645 1543.19 621.403 1534.4 605.722C1525.61 589.766 1521.21 571.059 1521.21 549.601C1521.21 527.867 1525.74 509.023 1534.81 493.067C1543.87 477.111 1556.37 464.869 1572.3 456.341C1588.23 447.537 1605.95 443.136 1625.45 443.136C1645.23 443.136 1662.94 447.537 1678.6 456.341C1694.53 464.869 1707.17 477.111 1716.5 493.067C1725.84 508.748 1730.51 527.317 1730.51 548.775C1730.51 570.508 1725.71 589.353 1716.09 605.309C1706.75 621.265 1693.98 633.645 1677.78 642.448C1661.84 650.976 1643.99 655.24 1624.21 655.24ZM1623.8 613.562C1633.42 613.562 1642.48 611.224 1650.99 606.547C1659.78 601.87 1666.93 594.855 1672.42 585.502C1677.91 575.873 1680.66 563.631 1680.66 548.775C1680.66 534.47 1678.05 522.641 1672.83 513.287C1667.61 503.658 1660.75 496.506 1652.23 491.829C1643.72 487.152 1634.51 484.814 1624.63 484.814C1615.01 484.814 1606.09 487.152 1597.85 491.829C1589.88 496.506 1583.42 503.658 1578.48 513.287C1573.54 522.641 1571.06 534.745 1571.06 549.601C1571.06 563.906 1573.4 575.873 1578.07 585.502C1583.01 594.855 1589.47 601.87 1597.43 606.547C1605.4 611.224 1614.19 613.562 1623.8 613.562Z" fill="white"/>
<path d="M1866.03 655.24C1846.25 655.24 1828.54 650.976 1812.88 642.448C1797.22 633.645 1785 621.403 1776.21 605.722C1767.42 589.766 1763.03 571.059 1763.03 549.601C1763.03 527.867 1767.56 509.023 1776.62 493.067C1785.69 477.111 1798.19 464.869 1814.12 456.341C1830.05 447.537 1847.76 443.136 1867.27 443.136C1887.04 443.136 1904.76 447.537 1920.42 456.341C1936.35 464.869 1948.98 477.111 1958.32 493.067C1967.66 508.748 1972.33 527.317 1972.33 548.775C1972.33 570.508 1967.52 589.353 1957.91 605.309C1948.57 621.265 1935.8 633.645 1919.59 642.448C1903.66 650.976 1885.81 655.24 1866.03 655.24ZM1865.62 613.562C1875.23 613.562 1884.3 611.224 1892.81 606.547C1901.6 601.87 1908.74 594.855 1914.24 585.502C1919.73 575.873 1922.48 563.631 1922.48 548.775C1922.48 534.47 1919.87 522.641 1914.65 513.287C1909.43 503.658 1902.56 496.506 1894.05 491.829C1885.53 487.152 1876.33 484.814 1866.44 484.814C1856.83 484.814 1847.9 487.152 1839.66 491.829C1831.7 496.506 1825.24 503.658 1820.3 513.287C1815.35 522.641 1812.88 534.745 1812.88 549.601C1812.88 563.906 1815.22 575.873 1819.88 585.502C1824.83 594.855 1831.28 601.87 1839.25 606.547C1847.21 611.224 1856 613.562 1865.62 613.562Z" fill="white"/>
<path d="M2168 482.751L2065 611.499H2168V652.352H2006.49V615.625L2109.91 486.877H2006.49V446.024H2168V482.751Z" fill="white"/>
</svg>
