<svg width="2630" height="1009" viewBox="0 0 2630 1009" fill="none" xmlns="http://www.w3.org/2000/svg">
<path d="M462 344.744C462 281.231 513.487 229.744 577 229.744H897C960.513 229.744 1012 281.231 1012 344.744V664.744C1012 728.257 960.513 779.744 897 779.744H577C513.487 779.744 462 728.257 462 664.744V344.744Z" fill="#5E38F4"/>
<path d="M614.247 557.95L625.997 594.311C626.399 595.557 628.163 595.557 628.566 594.311L640.315 557.95C646.462 538.879 661.416 523.924 680.487 517.778L716.848 506.029C718.095 505.626 718.095 503.862 716.848 503.459L680.487 491.71C661.416 485.564 646.462 470.609 640.315 451.538L628.566 415.177C628.163 413.931 626.399 413.931 625.997 415.177L614.247 451.538C608.101 470.609 593.146 485.564 574.075 491.71L537.714 503.459C536.468 503.862 536.468 505.626 537.714 506.029L574.075 517.778C593.146 523.924 608.073 538.879 614.247 557.95Z" fill="white"/>
<path d="M833.685 557.95L845.434 594.311C845.837 595.557 847.6 595.557 848.003 594.311L859.753 557.95C865.899 538.879 880.854 523.924 899.924 517.778L936.286 506.029C937.532 505.626 937.532 503.862 936.286 503.459L899.924 491.71C880.854 485.564 865.899 470.609 859.753 451.538L848.003 415.177C847.6 413.931 845.837 413.931 845.434 415.177L833.685 451.538C827.538 470.609 812.584 485.564 793.513 491.71L757.152 503.459C755.905 503.862 755.905 505.626 757.152 506.029L793.513 517.778C812.584 523.924 827.511 538.879 833.685 557.95Z" fill="white"/>
<path d="M1192 362.997H1388.94V403.85H1241.03V485.143H1351.86V525.996H1241.03V651.856H1192V362.997Z" fill="white"/>
<path d="M1431.34 354.744H1477.9V651.856H1431.34V354.744Z" fill="white"/>
<path d="M1624.21 654.744C1604.44 654.744 1586.72 650.48 1571.06 641.952C1555.41 633.149 1543.19 620.906 1534.4 605.226C1525.61 589.27 1521.21 570.563 1521.21 549.105C1521.21 527.371 1525.74 508.527 1534.81 492.571C1543.87 476.615 1556.37 464.373 1572.3 455.845C1588.23 447.041 1605.95 442.64 1625.45 442.64C1645.23 442.64 1662.94 447.041 1678.6 455.845C1694.53 464.373 1707.17 476.615 1716.5 492.571C1725.84 508.252 1730.51 526.821 1730.51 548.279C1730.51 570.012 1725.71 588.857 1716.09 604.813C1706.75 620.769 1693.98 633.149 1677.78 641.952C1661.84 650.48 1643.99 654.744 1624.21 654.744ZM1623.8 613.066C1633.42 613.066 1642.48 610.728 1650.99 606.051C1659.78 601.374 1666.93 594.359 1672.42 585.005C1677.91 575.377 1680.66 563.135 1680.66 548.279C1680.66 533.974 1678.05 522.144 1672.83 512.791C1667.61 503.162 1660.75 496.01 1652.23 491.333C1643.72 486.656 1634.51 484.318 1624.63 484.318C1615.01 484.318 1606.09 486.656 1597.85 491.333C1589.88 496.01 1583.42 503.162 1578.48 512.791C1573.54 522.144 1571.06 534.249 1571.06 549.105C1571.06 563.41 1573.4 575.377 1578.07 585.005C1583.01 594.359 1589.47 601.374 1597.43 606.051C1605.4 610.728 1614.19 613.066 1623.8 613.066Z" fill="white"/>
<path d="M1866.03 654.744C1846.25 654.744 1828.54 650.48 1812.88 641.952C1797.22 633.149 1785 620.906 1776.21 605.226C1767.42 589.27 1763.03 570.563 1763.03 549.105C1763.03 527.371 1767.56 508.527 1776.62 492.571C1785.69 476.615 1798.19 464.373 1814.12 455.845C1830.05 447.041 1847.76 442.64 1867.27 442.64C1887.04 442.64 1904.76 447.041 1920.42 455.845C1936.35 464.373 1948.98 476.615 1958.32 492.571C1967.66 508.252 1972.33 526.821 1972.33 548.279C1972.33 570.012 1967.52 588.857 1957.91 604.813C1948.57 620.769 1935.8 633.149 1919.59 641.952C1903.66 650.48 1885.81 654.744 1866.03 654.744ZM1865.62 613.066C1875.23 613.066 1884.3 610.728 1892.81 606.051C1901.6 601.374 1908.74 594.359 1914.24 585.005C1919.73 575.377 1922.48 563.135 1922.48 548.279C1922.48 533.974 1919.87 522.144 1914.65 512.791C1909.43 503.162 1902.56 496.01 1894.05 491.333C1885.53 486.656 1876.33 484.318 1866.44 484.318C1856.83 484.318 1847.9 486.656 1839.66 491.333C1831.7 496.01 1825.24 503.162 1820.3 512.791C1815.35 522.144 1812.88 534.249 1812.88 549.105C1812.88 563.41 1815.22 575.377 1819.88 585.005C1824.83 594.359 1831.28 601.374 1839.25 606.051C1847.21 610.728 1856 613.066 1865.62 613.066Z" fill="white"/>
<path d="M2168 482.254L2065 611.003H2168V651.856H2006.49V615.129L2109.91 486.381H2006.49V445.528H2168V482.254Z" fill="white"/>
</svg>
