<svg width="2630" height="1009" viewBox="0 0 2630 1009" fill="none" xmlns="http://www.w3.org/2000/svg">
<path d="M462 344.248C462 280.735 513.487 229.248 577 229.248H897C960.513 229.248 1012 280.735 1012 344.248V664.248C1012 727.761 960.513 779.248 897 779.248H577C513.487 779.248 462 727.761 462 664.248V344.248Z" fill="#5E38F4"/>
<path d="M614.247 557.454L625.997 593.815C626.399 595.061 628.163 595.061 628.566 593.815L640.315 557.454C646.462 538.383 661.416 523.428 680.487 517.282L716.848 505.532C718.095 505.13 718.095 503.366 716.848 502.963L680.487 491.214C661.416 485.067 646.462 470.113 640.315 451.042L628.566 414.681C628.163 413.434 626.399 413.434 625.997 414.681L614.247 451.042C608.101 470.113 593.146 485.067 574.075 491.214L537.714 502.963C536.468 503.366 536.468 505.13 537.714 505.532L574.075 517.282C593.146 523.428 608.073 538.383 614.247 557.454Z" fill="white"/>
<path d="M833.685 557.454L845.434 593.815C845.837 595.061 847.6 595.061 848.003 593.815L859.753 557.454C865.899 538.383 880.854 523.428 899.924 517.282L936.286 505.532C937.532 505.13 937.532 503.366 936.286 502.963L899.924 491.214C880.854 485.067 865.899 470.113 859.753 451.042L848.003 414.681C847.6 413.434 845.837 413.434 845.434 414.681L833.685 451.042C827.538 470.113 812.584 485.067 793.513 491.214L757.152 502.963C755.905 503.366 755.905 505.13 757.152 505.532L793.513 517.282C812.584 523.428 827.511 538.383 833.685 557.454Z" fill="white"/>
<path d="M1192 362.501H1388.94V403.354H1241.03V484.647H1351.86V525.5H1241.03V651.359H1192V362.501Z" fill="#09080A"/>
<path d="M1431.34 354.248H1477.9V651.359H1431.34V354.248Z" fill="#09080A"/>
<path d="M1624.21 654.248C1604.44 654.248 1586.72 649.984 1571.06 641.456C1555.41 632.652 1543.19 620.41 1534.4 604.729C1525.61 588.773 1521.21 570.066 1521.21 548.608C1521.21 526.875 1525.74 508.031 1534.81 492.075C1543.87 476.119 1556.37 463.877 1572.3 455.348C1588.23 446.545 1605.95 442.144 1625.45 442.144C1645.23 442.144 1662.94 446.545 1678.6 455.348C1694.53 463.877 1707.17 476.119 1716.5 492.075C1725.84 507.756 1730.51 526.325 1730.51 547.783C1730.51 569.516 1725.71 588.361 1716.09 604.317C1706.75 620.273 1693.98 632.652 1677.78 641.456C1661.84 649.984 1643.99 654.248 1624.21 654.248ZM1623.8 612.57C1633.42 612.57 1642.48 610.232 1650.99 605.555C1659.78 600.878 1666.93 593.863 1672.42 584.509C1677.91 574.881 1680.66 562.639 1680.66 547.783C1680.66 533.478 1678.05 521.648 1672.83 512.295C1667.61 502.666 1660.75 495.514 1652.23 490.837C1643.72 486.16 1634.51 483.822 1624.63 483.822C1615.01 483.822 1606.09 486.16 1597.85 490.837C1589.88 495.514 1583.42 502.666 1578.48 512.295C1573.54 521.648 1571.06 533.753 1571.06 548.608C1571.06 562.914 1573.4 574.881 1578.07 584.509C1583.01 593.863 1589.47 600.878 1597.43 605.555C1605.4 610.232 1614.19 612.57 1623.8 612.57Z" fill="#09080A"/>
<path d="M1866.03 654.248C1846.25 654.248 1828.54 649.984 1812.88 641.456C1797.22 632.652 1785 620.41 1776.21 604.729C1767.42 588.773 1763.03 570.066 1763.03 548.608C1763.03 526.875 1767.56 508.031 1776.62 492.075C1785.69 476.119 1798.19 463.877 1814.12 455.348C1830.05 446.545 1847.76 442.144 1867.27 442.144C1887.04 442.144 1904.76 446.545 1920.42 455.348C1936.35 463.877 1948.98 476.119 1958.32 492.075C1967.66 507.756 1972.33 526.325 1972.33 547.783C1972.33 569.516 1967.52 588.361 1957.91 604.317C1948.57 620.273 1935.8 632.652 1919.59 641.456C1903.66 649.984 1885.81 654.248 1866.03 654.248ZM1865.62 612.57C1875.23 612.57 1884.3 610.232 1892.81 605.555C1901.6 600.878 1908.74 593.863 1914.24 584.509C1919.73 574.881 1922.48 562.639 1922.48 547.783C1922.48 533.478 1919.87 521.648 1914.65 512.295C1909.43 502.666 1902.56 495.514 1894.05 490.837C1885.53 486.16 1876.33 483.822 1866.44 483.822C1856.83 483.822 1847.9 486.16 1839.66 490.837C1831.7 495.514 1825.24 502.666 1820.3 512.295C1815.35 521.648 1812.88 533.753 1812.88 548.608C1812.88 562.914 1815.22 574.881 1819.88 584.509C1824.83 593.863 1831.28 600.878 1839.25 605.555C1847.21 610.232 1856 612.57 1865.62 612.57Z" fill="#09080A"/>
<path d="M2168 481.758L2065 610.507H2168V651.359H2006.49V614.633L2109.91 485.885H2006.49V445.032H2168V481.758Z" fill="#09080A"/>
</svg>
