<svg width="2630" height="1009" viewBox="0 0 2630 1009" fill="none" xmlns="http://www.w3.org/2000/svg">
<path d="M462 344.736C462 281.224 513.487 229.736 577 229.736H897C960.513 229.736 1012 281.224 1012 344.736V664.736C1012 728.249 960.513 779.736 897 779.736H577C513.487 779.736 462 728.249 462 664.736V344.736Z" fill="#09080A"/>
<path d="M614.247 557.942L625.997 594.303C626.399 595.55 628.163 595.55 628.566 594.303L640.315 557.942C646.462 538.871 661.416 523.917 680.487 517.77L716.848 506.021C718.095 505.618 718.095 503.854 716.848 503.452L680.487 491.702C661.416 485.556 646.462 470.601 640.315 451.53L628.566 415.169C628.163 413.923 626.399 413.923 625.997 415.169L614.247 451.53C608.101 470.601 593.146 485.556 574.075 491.702L537.714 503.452C536.468 503.854 536.468 505.618 537.714 506.021L574.075 517.77C593.146 523.917 608.073 538.871 614.247 557.942Z" fill="white"/>
<path d="M833.685 557.942L845.434 594.303C845.837 595.55 847.6 595.55 848.003 594.303L859.753 557.942C865.899 538.871 880.854 523.917 899.924 517.77L936.286 506.021C937.532 505.618 937.532 503.854 936.286 503.452L899.924 491.702C880.854 485.556 865.899 470.601 859.753 451.53L848.003 415.169C847.6 413.923 845.837 413.923 845.434 415.169L833.685 451.53C827.538 470.601 812.584 485.556 793.513 491.702L757.152 503.452C755.905 503.854 755.905 505.618 757.152 506.021L793.513 517.77C812.584 523.917 827.511 538.871 833.685 557.942Z" fill="white"/>
<path d="M1192 362.989H1388.94V403.842H1241.03V485.135H1351.86V525.988H1241.03V651.848H1192V362.989Z" fill="#09080A"/>
<path d="M1431.34 354.736H1477.9V651.848H1431.34V354.736Z" fill="#09080A"/>
<path d="M1624.21 654.736C1604.44 654.736 1586.72 650.472 1571.06 641.944C1555.41 633.141 1543.19 620.899 1534.4 605.218C1525.61 589.262 1521.21 570.555 1521.21 549.097C1521.21 527.364 1525.74 508.519 1534.81 492.563C1543.87 476.607 1556.37 464.365 1572.3 455.837C1588.23 447.033 1605.95 442.632 1625.45 442.632C1645.23 442.632 1662.94 447.033 1678.6 455.837C1694.53 464.365 1707.17 476.607 1716.5 492.563C1725.84 508.244 1730.51 526.813 1730.51 548.271C1730.51 570.005 1725.71 588.849 1716.09 604.805C1706.75 620.761 1693.98 633.141 1677.78 641.944C1661.84 650.472 1643.99 654.736 1624.21 654.736ZM1623.8 613.058C1633.42 613.058 1642.48 610.72 1650.99 606.043C1659.78 601.366 1666.93 594.351 1672.42 584.998C1677.91 575.369 1680.66 563.127 1680.66 548.271C1680.66 533.966 1678.05 522.137 1672.83 512.783C1667.61 503.154 1660.75 496.002 1652.23 491.325C1643.72 486.648 1634.51 484.31 1624.63 484.31C1615.01 484.31 1606.09 486.648 1597.85 491.325C1589.88 496.002 1583.42 503.154 1578.48 512.783C1573.54 522.137 1571.06 534.241 1571.06 549.097C1571.06 563.402 1573.4 575.369 1578.07 584.998C1583.01 594.351 1589.47 601.366 1597.43 606.043C1605.4 610.72 1614.19 613.058 1623.8 613.058Z" fill="#09080A"/>
<path d="M1866.03 654.736C1846.25 654.736 1828.54 650.472 1812.88 641.944C1797.22 633.141 1785 620.899 1776.21 605.218C1767.42 589.262 1763.03 570.555 1763.03 549.097C1763.03 527.364 1767.56 508.519 1776.62 492.563C1785.69 476.607 1798.19 464.365 1814.12 455.837C1830.05 447.033 1847.76 442.632 1867.27 442.632C1887.04 442.632 1904.76 447.033 1920.42 455.837C1936.35 464.365 1948.98 476.607 1958.32 492.563C1967.66 508.244 1972.33 526.813 1972.33 548.271C1972.33 570.005 1967.52 588.849 1957.91 604.805C1948.57 620.761 1935.8 633.141 1919.59 641.944C1903.66 650.472 1885.81 654.736 1866.03 654.736ZM1865.62 613.058C1875.23 613.058 1884.3 610.72 1892.81 606.043C1901.6 601.366 1908.74 594.351 1914.24 584.998C1919.73 575.369 1922.48 563.127 1922.48 548.271C1922.48 533.966 1919.87 522.137 1914.65 512.783C1909.43 503.154 1902.56 496.002 1894.05 491.325C1885.53 486.648 1876.33 484.31 1866.44 484.31C1856.83 484.31 1847.9 486.648 1839.66 491.325C1831.7 496.002 1825.24 503.154 1820.3 512.783C1815.35 522.137 1812.88 534.241 1812.88 549.097C1812.88 563.402 1815.22 575.369 1819.88 584.998C1824.83 594.351 1831.28 601.366 1839.25 606.043C1847.21 610.72 1856 613.058 1865.62 613.058Z" fill="#09080A"/>
<path d="M2168 482.247L2065 610.995H2168V651.848H2006.49V615.121L2109.91 486.373H2006.49V445.52H2168V482.247Z" fill="#09080A"/>
</svg>
