<?xml version="1.0" encoding="UTF-8" standalone="no"?>
<svg
   width="550"
   height="550"
   viewBox="0 0 550 550"
   fill="none"
   version="1.1"
   id="svg8"
   xmlns="http://www.w3.org/2000/svg"
   xmlns:svg="http://www.w3.org/2000/svg">
  <defs
     id="defs8" />
  <g
     id="g8"
     transform="translate(-462,-229.248)">
    <path
       d="m 462,344.248 c 0,-63.513 51.487,-115 115,-115 h 320 c 63.513,0 115,51.487 115,115 v 320 c 0,63.513 -51.487,115 -115,115 H 577 c -63.513,0 -115,-51.487 -115,-115 z"
       fill="#5e38f4"
       id="path1" />
    <path
       d="m 614.247,557.454 11.75,36.361 c 0.402,1.246 2.166,1.246 2.569,0 l 11.749,-36.361 c 6.147,-19.071 21.101,-34.026 40.172,-40.172 l 36.361,-11.75 c 1.247,-0.402 1.247,-2.166 0,-2.569 l -36.361,-11.749 c -19.071,-6.147 -34.025,-21.101 -40.172,-40.172 l -11.749,-36.361 c -0.403,-1.247 -2.167,-1.247 -2.569,0 l -11.75,36.361 c -6.146,19.071 -21.101,34.025 -40.172,40.172 l -36.361,11.749 c -1.246,0.403 -1.246,2.167 0,2.569 l 36.361,11.75 c 19.071,6.146 33.998,21.101 40.172,40.172 z"
       fill="#ffffff"
       id="path2" />
    <path
       d="m 833.685,557.454 11.749,36.361 c 0.403,1.246 2.166,1.246 2.569,0 l 11.75,-36.361 c 6.146,-19.071 21.101,-34.026 40.171,-40.172 l 36.362,-11.75 c 1.246,-0.402 1.246,-2.166 0,-2.569 l -36.362,-11.749 c -19.07,-6.147 -34.025,-21.101 -40.171,-40.172 l -11.75,-36.361 c -0.403,-1.247 -2.166,-1.247 -2.569,0 l -11.749,36.361 c -6.147,19.071 -21.101,34.025 -40.172,40.172 l -36.361,11.749 c -1.247,0.403 -1.247,2.167 0,2.569 l 36.361,11.75 c 19.071,6.146 33.998,21.101 40.172,40.172 z"
       fill="#ffffff"
       id="path3" />
  </g>
</svg>
